<?xml version="1.0" encoding="UTF-8"?>
<svg width="51px" height="51px" viewBox="0 0 51 51" version="1.1" xmlns="http://www.w3.org/2000/svg" xmlns:xlink="http://www.w3.org/1999/xlink">
    <title>市场调查-white</title>
    <defs>
        <linearGradient x1="14.6616758%" y1="57.8532417%" x2="73.5636271%" y2="48.6720676%" id="linearGradient-1">
            <stop stop-color="#1A329F" offset="0%"></stop>
            <stop stop-color="#A5C1FF" offset="100%"></stop>
        </linearGradient>
    </defs>
    <g id="页面-1" stroke="none" stroke-width="1" fill="none" fill-rule="evenodd">
        <g id="官网备份" transform="translate(-1419.000000, -2201.000000)">
            <g id="市场调查-white" transform="translate(1419.107206, 2201.919336)">
                <rect id="矩形" x="0" y="0" width="50" height="50"></rect>
                <g id="市场分析_market-analysis-2" transform="translate(6.015625, 8.194444)">
                    <path d="M35.15625,-1.375 L3.28125,-1.375 C0.968561594,-1.375 -0.90625,0.499811594 -0.90625,2.8125 L-0.90625,11.25 C-0.90625,12.0093915 -0.290641531,12.625 0.46875,12.625 L37.96875,12.625 C38.7281415,12.625 39.34375,12.0093915 39.34375,11.25 L39.34375,2.8125 C39.34375,0.499798948 37.4689726,-1.375 35.15625,-1.375 Z M35.15625,1.375 L35.2946945,1.38158032 C36.0236694,1.45123494 36.59375,2.0652764 36.59375,2.8125 L36.593,9.875 L1.843,9.875 L1.84375,2.8125 C1.84375,2.01859466 2.48734466,1.375 3.28125,1.375 L35.15625,1.375 Z" id="路径" fill="#FFFFFF" fill-rule="nonzero"></path>
                    <polyline id="路径" fill="url(#linearGradient-1)" points="0.57403125 29.0907187 11.3691218 16.1770463 17.7766607 22.1564045 25.4001031 13.9937784 34.9792902 29.0907187"></polyline>
                    <path d="M37.96875,8 C38.6834714,8 39.270828,8.54531408 39.3374556,9.24257832 L39.34375,9.375 L39.34375,27.1875 C39.34375,29.4301524 37.5808858,31.2609757 35.3652522,31.3698753 L35.15625,31.375 L7.96875,31.375 C7.20935847,31.375 6.59375,30.7593915 6.59375,30 C6.59375,29.2852786 7.13906408,28.697922 7.83632832,28.6312944 L7.96875,28.625 L35.15625,28.625 C35.9034991,28.625 36.5175181,28.0549369 36.5871699,27.3259475 L36.59375,27.1875 L36.59375,9.375 C36.59375,8.61560847 37.2093585,8 37.96875,8 Z" id="路径" fill="#FFFFFF" fill-rule="nonzero"></path>
                    <path d="M0.46875,8 C1.18347144,8 1.77082795,8.54531408 1.83745564,9.24257832 L1.84375,9.375 L1.84375,17.8125 C1.84375,18.5718915 1.22814153,19.1875 0.46875,19.1875 C-0.245971441,19.1875 -0.833327955,18.6421859 -0.899955637,17.9449217 L-0.90625,17.8125 L-0.90625,9.375 C-0.90625,8.61560847 -0.290641531,8 0.46875,8 Z" id="路径" fill="#FFFFFF" fill-rule="nonzero"></path>
                </g>
            </g>
        </g>
    </g>
</svg>