<?xml version="1.0" encoding="UTF-8"?>
<svg width="45px" height="45px" viewBox="0 0 45 45" version="1.1" xmlns="http://www.w3.org/2000/svg" xmlns:xlink="http://www.w3.org/1999/xlink">
    <title>广告验证- white</title>
    <defs>
        <linearGradient x1="14.6616758%" y1="90.7869046%" x2="73.5636271%" y2="43.1031982%" id="linearGradient-1">
            <stop stop-color="#1A329F" offset="0%"></stop>
            <stop stop-color="#A5C1FF" offset="100%"></stop>
        </linearGradient>
    </defs>
    <g id="页面-1" stroke="none" stroke-width="1" fill="none" fill-rule="evenodd">
        <g id="官网备份" transform="translate(-439.000000, -2204.000000)">
            <g id="广告验证--white" transform="translate(439.587561, 2204.586003)">
                <rect id="矩形" fill-opacity="0.01" fill="#FFFFFF" fill-rule="nonzero" x="0" y="0.333333333" width="44" height="44"></rect>
                <circle id="椭圆形" fill="url(#linearGradient-1)" cx="26" cy="18.3333333" r="18.3333333"></circle>
                <path d="M22,2.625 C11.1153881,2.625 2.29166667,11.4487214 2.29166667,22.3333333 C2.29166667,33.2179453 11.1153881,42.0416667 22,42.0416667 C32.8846119,42.0416667 41.7083333,33.2179453 41.7083333,22.3333333 C41.7083333,11.4487214 32.8846119,2.625 22,2.625 Z M22,5.375 C31.3658289,5.375 38.9583333,12.9675045 38.9583333,22.3333333 C38.9583333,31.6991622 31.3658289,39.2916667 22,39.2916667 C12.6341711,39.2916667 5.04166667,31.6991622 5.04166667,22.3333333 C5.04166667,12.9675045 12.6341711,5.375 22,5.375 Z" id="椭圆形" fill="#FFFFFF" fill-rule="nonzero"></path>
                <path d="M31.1110615,31.4443948 C31.6122344,30.943222 32.4040368,30.9098105 32.9439603,31.3441603 L33.0556052,31.4443948 L35.8056052,34.1943948 C36.3425761,34.7313657 36.3425761,35.6019676 35.8056052,36.1389385 C35.3044323,36.6401113 34.5126299,36.6735229 33.9727064,36.2391731 L33.8610615,36.1389385 L31.1110615,33.3889385 C30.5740906,32.8519676 30.5740906,31.9813657 31.1110615,31.4443948 Z" id="路径" fill="#FFFFFF" fill-rule="nonzero"></path>
                <path d="M8.19439484,8.52772818 C8.69556768,8.02655533 9.48737015,7.99314381 10.0272936,8.42749361 L10.1389385,8.52772818 L12.8889385,11.2777282 C13.4259094,11.8146991 13.4259094,12.6853009 12.8889385,13.2222718 C12.3877656,13.7234447 11.5959632,13.7568562 11.0560397,13.3225064 L10.9443948,13.2222718 L8.19439484,10.4722718 C7.65742394,9.93530092 7.65742394,9.06469908 8.19439484,8.52772818 Z" id="路径" fill="#FFFFFF" fill-rule="nonzero"></path>
                <polygon id="路径" points="19.3809917 26 16.5 15.9166667 13.6190083 26"></polygon>
                <path d="M17.7757695,15.4015436 L17.8220941,15.5389204 L21.4887671,28.3722759 C21.6973783,29.1024518 21.2745667,29.8634892 20.5443908,30.0721004 C19.8571664,30.2684404 19.1426045,29.9054577 18.8869958,29.2533221 L18.8445662,29.1277241 L18.343,27.375 L14.656,27.375 L14.1554338,29.1277241 C13.9468225,29.8579 13.1857851,30.2807117 12.4556092,30.0721004 C11.7683849,29.8757604 11.3534278,29.1900741 11.4809078,28.5013321 L11.5112329,28.3722759 L15.1779059,15.5389204 C15.544249,14.256737 17.3095041,14.2109448 17.7757695,15.4015436 Z M16.5,20.923 L15.442,24.625 L17.558,24.625 L16.5,20.923 Z" id="形状" fill="#FFFFFF" fill-rule="nonzero"></path>
                <path d="M24.75,14.5416667 C23.9906085,14.5416667 23.375,15.1572751 23.375,15.9166667 L23.375,28.75 C23.375,29.5093915 23.9906085,30.125 24.75,30.125 C29.9564314,30.125 33.4583333,27.403714 33.4583333,22.3333333 C33.4583333,17.2629526 29.9564314,14.5416667 24.75,14.5416667 Z M26.125,17.373 L26.2821517,17.3936576 C29.1356783,17.8019216 30.7083333,19.437678 30.7083333,22.3333333 L30.7046992,22.5717222 C30.6199753,25.3189169 29.0564137,26.8760857 26.2821517,27.273009 L26.125,27.293 L26.125,17.373 Z" id="路径" fill="#FFFFFF" fill-rule="nonzero"></path>
            </g>
        </g>
    </g>
</svg>