<?xml version="1.0" encoding="UTF-8"?>
<svg width="51px" height="51px" viewBox="0 0 51 51" version="1.1" xmlns="http://www.w3.org/2000/svg" xmlns:xlink="http://www.w3.org/1999/xlink">
    <title>SEO优化-white</title>
    <defs>
        <linearGradient x1="65.728877%" y1="100%" x2="80.9416465%" y2="23.5337813%" id="linearGradient-1">
            <stop stop-color="#1A329F" offset="0%"></stop>
            <stop stop-color="#A5C1FF" offset="100%"></stop>
        </linearGradient>
    </defs>
    <g id="页面-1" stroke="none" stroke-width="1" fill="none" fill-rule="evenodd">
        <g id="官网备份" transform="translate(-1112.000000, -2201.000000)">
            <g id="SEO优化-white" transform="translate(1112.534544, 2201.919336)">
                <rect id="矩形" x="0" y="0" width="50" height="50"></rect>
                <g id="历史搜索_history-query" transform="translate(8.500000, 4.500000)">
                    <path d="M37,16.5 L37,2.75 C37,1.23122083 35.768825,0 34.25,0 L6.75,0 C5.23122083,0 4,1.23122083 4,2.75 L4,30.25 C4,31.768825 5.23122083,33 6.75,33 L20.5,33" id="路径" fill="url(#linearGradient-1)"></path>
                    <path d="M30.25,2.625 C32.4591678,2.625 34.2626768,4.3615846 34.3699518,6.54412018 L34.375,6.75 L34.375,20.5 C34.375,21.2593915 33.7593915,21.875 33,21.875 C32.2852786,21.875 31.697922,21.3296859 31.6312944,20.6324217 L31.625,20.5 L31.625,6.75 C31.625,6.03526399 31.0797059,5.44792033 30.3824252,5.38129421 L30.25,5.375 L2.75,5.375 C2.03528223,5.375 1.44792248,5.92031753 1.3812944,6.61757893 L1.375,6.75 L1.375,34.25 C1.375,34.9647427 1.92030037,35.5520805 2.6175759,35.6187059 L2.75,35.625 L16.5,35.625 C17.2593915,35.625 17.875,36.2406085 17.875,37 C17.875,37.7147214 17.3296859,38.302078 16.6324217,38.3687056 L16.5,38.375 L2.75,38.375 C0.540852864,38.375 -1.26267558,36.6384354 -1.36995174,34.4558816 L-1.375,34.25 L-1.375,6.75 C-1.375,4.54086478 0.361596148,2.73732514 2.54412123,2.6300483 L2.75,2.625 L30.25,2.625 Z" id="路径" fill="#FFFFFF" fill-rule="nonzero"></path>
                    <path d="M23.8333333,20.9583333 C20.0363757,20.9583333 16.9583333,24.0363757 16.9583333,27.8333333 C16.9583333,31.630291 20.0363757,34.7083333 23.8333333,34.7083333 C27.630291,34.7083333 30.7083333,31.630291 30.7083333,27.8333333 C30.7083333,24.0363757 27.630291,20.9583333 23.8333333,20.9583333 Z M23.8333333,23.7083333 C26.1115079,23.7083333 27.9583333,25.5551587 27.9583333,27.8333333 C27.9583333,30.1115079 26.1115079,31.9583333 23.8333333,31.9583333 C21.5551587,31.9583333 19.7083333,30.1115079 19.7083333,27.8333333 C19.7083333,25.5551587 21.5551587,23.7083333 23.8333333,23.7083333 Z" id="椭圆形" fill="#FFFFFF" fill-rule="nonzero"></path>
                    <path d="M27.3429721,30.6410443 C27.7877109,30.0851207 28.5760045,29.9658758 29.1614086,30.3440255 L29.2756224,30.4263054 L33.8589557,34.0929721 C34.4519409,34.5673602 34.5480827,35.4326372 34.0736946,36.0256224 C33.6289557,36.5815459 32.8406622,36.7007909 32.255258,36.3226411 L32.1410443,36.2403613 L27.557711,32.5736946 C26.9647258,32.0993065 26.8685839,31.2340295 27.3429721,30.6410443 Z" id="路径" fill="#FFFFFF" fill-rule="nonzero"></path>
                    <path d="M25.6666667,11.7916667 C26.4260582,11.7916667 27.0416667,12.4072751 27.0416667,13.1666667 C27.0416667,13.8813881 26.4963526,14.4687446 25.7990883,14.5353723 L25.6666667,14.5416667 L7.33333333,14.5416667 C6.5739418,14.5416667 5.95833333,13.9260582 5.95833333,13.1666667 C5.95833333,12.4519452 6.50364741,11.8645887 7.20091166,11.797961 L7.33333333,11.7916667 L25.6666667,11.7916667 Z" id="路径" fill="#FFFFFF" fill-rule="nonzero"></path>
                    <path d="M14.6666667,19.125 C15.4260582,19.125 16.0416667,19.7406085 16.0416667,20.5 C16.0416667,21.2147214 15.4963526,21.802078 14.7990883,21.8687056 L14.6666667,21.875 L7.33333333,21.875 C6.5739418,21.875 5.95833333,21.2593915 5.95833333,20.5 C5.95833333,19.7852786 6.50364741,19.197922 7.20091166,19.1312944 L7.33333333,19.125 L14.6666667,19.125 Z" id="路径" fill="#FFFFFF" fill-rule="nonzero"></path>
                </g>
            </g>
        </g>
    </g>
</svg>