<?xml version="1.0" encoding="UTF-8"?>
<svg width="51px" height="51px" viewBox="0 0 51 51" version="1.1" xmlns="http://www.w3.org/2000/svg" xmlns:xlink="http://www.w3.org/1999/xlink">
    <title>金融数据-white</title>
    <defs>
        <linearGradient x1="14.6616758%" y1="90.7869046%" x2="73.5636271%" y2="43.1031982%" id="linearGradient-1">
            <stop stop-color="#1A329F" offset="0%"></stop>
            <stop stop-color="#A5C1FF" offset="100%"></stop>
        </linearGradient>
    </defs>
    <g id="页面-1" stroke="none" stroke-width="1" fill="none" fill-rule="evenodd">
        <g id="官网备份" transform="translate(-1101.000000, -2483.000000)">
            <g id="金融数据-white" transform="translate(1101.386864, 2483.782766)">
                <rect id="矩形" x="0" y="0" width="50" height="50"></rect>
                <g id="数据库搜索_database-search" transform="translate(3.000000, 3.000000)">
                    <rect id="矩形" fill-opacity="0.01" fill="#FFFFFF" fill-rule="nonzero" x="0" y="0" width="44" height="44"></rect>
                    <path d="M31.1666667,9.625 C31.8813881,9.625 32.4687446,10.1703141 32.5353723,10.8675783 L32.5416667,11 L32.5416667,19.25 C32.5416667,20.0093915 31.9260582,20.625 31.1666667,20.625 C28.9241438,20.625 26.8380711,21.5756866 25.3681881,23.2120123 C24.0919864,24.6327063 23.375,26.4670878 23.375,28.4166667 C23.375,28.8646152 23.4126655,29.3072437 23.4869439,29.7415832 C23.881613,32.0485903 25.3040987,34.0511662 27.3295561,35.1998327 C28.3812816,35.7962816 28.2065348,37.3621225 27.0491952,37.7120411 C24.4002391,38.5129461 21.0063129,38.9583333 17.4166667,38.9583333 C16.6459205,38.9583333 15.8885901,38.9390899 15.1487662,38.9012457 L14.4149292,38.8572249 C14.2936461,38.8488627 14.1728872,38.8399897 14.0526714,38.830609 L13.3380452,38.7682551 C13.2200775,38.7568552 13.1026909,38.7449535 12.9859041,38.7325529 L12.292534,38.6521872 C12.1782226,38.6378032 12.064549,38.6229263 11.9515322,38.6075594 L11.2814634,38.5095032 C11.1711492,38.4921886 11.0615296,38.47439 10.9526236,38.4561104 L10.3079013,38.3406848 C10.2019252,38.3204932 10.0967005,38.2998265 9.99224611,38.2786877 L9.3749157,38.1462142 C5.22173074,37.2025937 2.42717808,35.4754269 2.29645856,33.1697384 L2.29166667,33 L2.29166667,11 C2.29166667,10.2406085 2.90727514,9.625 3.66666667,9.625 C4.38138811,9.625 4.96874462,10.1703141 5.0353723,10.8675783 L5.04166667,11 L5.04166667,33 C5.04166667,33.4366296 6.076941,34.2525183 8.12875352,34.936459 C10.5403252,35.7403199 13.8598274,36.2083333 17.4166667,36.2083333 C19.3338396,36.2083333 21.1832513,36.0725193 22.8605097,35.8204951 L23.553,35.707 L23.4542955,35.6036337 C22.1457849,34.1997592 21.2275039,32.4488813 20.8365604,30.5270752 L20.7763094,30.2052217 C20.6758613,29.6178559 20.625,29.0201563 20.625,28.4166667 C20.625,25.7819756 21.597082,23.2949419 23.3223892,21.3742945 C24.9407031,19.5727302 27.1172058,18.3837857 29.5076811,18.005218 L29.791,17.964 L29.7916667,11 C29.7916667,10.2852786 30.3369807,9.69792205 31.034245,9.63129436 L31.1666667,9.625 Z" id="路径" fill="#FFFFFF" fill-rule="nonzero"></path>
                    <path d="M44.3333333,25.4166667 C44.3333333,30.4792333 40.2292333,34.5833333 35.1666667,34.5833333 C33.5250083,34.5833333 31.9840917,34.1517667 30.6512583,33.3958833 C28.304775,32.0651583 26.603075,29.7292167 26.1316333,26.9734417 C26.0451,26.4674417 26,25.947325 26,25.4166667 C26,23.0629417 26.88715,20.9163833 28.3452917,19.29315 C30.0234333,17.4249833 32.457825,16.25 35.1666667,16.25 C40.2292333,16.25 44.3333333,20.3541 44.3333333,25.4166667 Z" id="路径" fill="url(#linearGradient-1)"></path>
                    <path d="M31.1666667,17.875 C28.1353572,17.875 25.3085017,19.1632837 23.3223892,21.3742945 C21.597082,23.2949419 20.625,25.7819756 20.625,28.4166667 C20.625,29.0201563 20.6758613,29.6178559 20.7763094,30.2052217 C21.3110811,33.3311876 23.2344234,36.0388695 25.9729605,37.591934 C27.5440331,38.4829287 29.3223994,38.9583333 31.1666667,38.9583333 C36.9886249,38.9583333 41.7083333,34.2386249 41.7083333,28.4166667 C41.7083333,22.5947085 36.9886249,17.875 31.1666667,17.875 Z M31.1666667,20.625 C35.4698418,20.625 38.9583333,24.1134915 38.9583333,28.4166667 C38.9583333,32.7198418 35.4698418,36.2083333 31.1666667,36.2083333 C29.8010805,36.2083333 28.4896565,35.8577548 27.3295657,35.1998381 C25.3040987,34.0511662 23.881613,32.0485903 23.4869439,29.7415832 C23.4126655,29.3072437 23.375,28.8646152 23.375,28.4166667 C23.375,26.4670878 24.0919864,24.6327063 25.3681881,23.2120123 C26.8380711,21.5756866 28.9241438,20.625 31.1666667,20.625 Z" id="路径" fill="#FFFFFF" fill-rule="nonzero"></path>
                    <path d="M17.4166667,5.04166667 C16.6459186,5.04166667 15.8885868,5.06090996 15.1487616,5.09875402 L14.4149235,5.14277454 C14.2936403,5.15113673 14.1728812,5.16000967 14.0526652,5.16939037 L13.3380382,5.23174394 C13.2200704,5.2431438 13.1026836,5.25504547 12.9858967,5.26744599 L12.292526,5.34781135 C12.1782145,5.36219533 12.0645409,5.37707219 11.9515239,5.39243898 L11.2814547,5.49049487 C11.1711405,5.50780942 11.0615209,5.52560794 10.9526148,5.54388745 L10.3078924,5.65931262 C10.2019163,5.6795042 10.0966915,5.70017082 9.99223717,5.72130952 L9.37490679,5.8537827 C5.12042515,6.82041556 2.29166667,8.60928286 2.29166667,11 C2.29166667,13.3907088 5.12043355,15.1795785 9.3749157,16.1462142 L9.99224611,16.2786877 C10.0967005,16.2998265 10.2019252,16.3204932 10.3079013,16.3406848 L10.9526236,16.4561104 C11.0615296,16.47439 11.1711492,16.4921886 11.2814634,16.5095032 L11.9515322,16.6075594 C12.064549,16.6229263 12.1782226,16.6378032 12.292534,16.6521872 L12.9859041,16.7325529 C13.1026909,16.7449535 13.2200775,16.7568552 13.3380452,16.7682551 L14.0526714,16.830609 C14.1728872,16.8399897 14.2936461,16.8488627 14.4149292,16.8572249 L15.1487662,16.9012457 C15.8885901,16.9390899 16.6459205,16.9583333 17.4166667,16.9583333 C18.1874129,16.9583333 18.9447432,16.9390899 19.6845671,16.9012457 L20.4184041,16.8572249 C20.5396872,16.8488627 20.6604461,16.8399897 20.7806619,16.830609 L21.4952881,16.7682551 C21.6132558,16.7568552 21.7306425,16.7449535 21.8474292,16.7325529 L22.5407994,16.6521872 C22.6551107,16.6378032 22.7687843,16.6229263 22.8818012,16.6075594 L23.55187,16.5095032 C28.8469507,15.6784017 32.5416667,13.7322386 32.5416667,11 C32.5416667,8.26775184 28.8469617,6.32159327 23.5518786,5.49049487 L22.8818094,5.39243898 C22.7687925,5.37707219 22.6551188,5.36219533 22.5408074,5.34781135 L21.8474366,5.26744599 C21.7306498,5.25504547 21.613263,5.2431438 21.4952952,5.23174394 L20.7806681,5.16939037 C20.6604522,5.16000967 20.5396931,5.15113673 20.4184098,5.14277454 L19.6845717,5.09875402 C18.9447466,5.06090996 18.1874147,5.04166667 17.4166667,5.04166667 Z M17.4166667,7.79166667 C20.9735115,7.79166667 24.2930132,8.25967713 26.7045809,9.0635345 C28.7563952,9.74747388 29.7916667,10.5633616 29.7916667,11 C29.7916667,11.4366296 28.7563923,12.2525183 26.7045798,12.936459 C24.2930081,13.7403199 20.973506,14.2083333 17.4166667,14.2083333 C13.8598274,14.2083333 10.5403252,13.7403199 8.12875352,12.936459 C6.076941,12.2525183 5.04166667,11.4366296 5.04166667,11 C5.04166667,10.5633616 6.0769381,9.74747388 8.12875244,9.0635345 C10.5403201,8.25967713 13.8598218,7.79166667 17.4166667,7.79166667 Z" id="路径" fill="#FFFFFF" fill-rule="nonzero"></path>
                    <path d="M3.66666667,24.2916667 C4.4260582,24.2916667 5.04166667,24.9072751 5.04166667,25.6666667 C5.04166667,26.1032963 6.076941,26.919185 8.12875352,27.6031256 C10.5403252,28.4069866 13.8598274,28.875 17.4166667,28.875 C18.9898823,28.875 20.5237157,28.7839413 21.9655578,28.608508 C22.7193898,28.516787 23.404846,29.053534 23.496567,29.8073661 C23.588288,30.5611981 23.051541,31.2466543 22.2977089,31.3383753 C20.744503,31.5273586 19.0997877,31.625 17.4166667,31.625 C16.7743782,31.625 16.1414062,31.6116365 15.5201181,31.5852814 L14.780332,31.5474431 L14.0526714,31.4972757 C13.9324556,31.4878949 13.8127829,31.4780064 13.6936722,31.4676131 L12.9859041,31.3992196 C12.8691173,31.386819 12.7529305,31.3739196 12.6373625,31.3605244 L11.9515322,31.2742261 L11.2814634,31.1761698 L10.628065,31.0664983 C9.66092481,30.8933511 8.75311534,30.6814843 7.91844214,30.4330667 L7.37297984,30.2620638 C4.25608811,29.2332375 2.29166667,27.658924 2.29166667,25.6666667 C2.29166667,24.9072751 2.90727514,24.2916667 3.66666667,24.2916667 Z" id="路径" fill="#FFFFFF" fill-rule="nonzero"></path>
                    <path d="M3.66666667,16.9583333 C4.4260582,16.9583333 5.04166667,17.5739418 5.04166667,18.3333333 C5.04166667,18.769963 6.076941,19.5858517 8.12875352,20.2697923 C10.5403252,21.0736532 13.8598274,21.5416667 17.4166667,21.5416667 C19.7997639,21.5416667 22.085938,21.3324637 24.0823593,20.9435236 C24.8277374,20.79831 25.5497046,21.2848395 25.6949181,22.0302176 C25.8401317,22.7755957 25.3536022,23.4975629 24.6082241,23.6427764 C22.4338561,24.0663839 19.971962,24.2916667 17.4166667,24.2916667 C16.9028359,24.2916667 16.3949677,24.283114 15.8942741,24.2661992 L15.1487662,24.234579 C14.9021582,24.2219643 14.6574954,24.2072828 14.4149292,24.1905583 L13.6936722,24.1342798 C13.5745615,24.1238865 13.4560129,24.1129884 13.3380452,24.1015885 L12.6373625,24.027191 C12.5217945,24.0137957 12.4068453,23.9999046 12.292534,23.9855206 L11.6144708,23.8933255 L10.9526236,23.7894437 C5.83403971,22.9303038 2.29166667,21.0086503 2.29166667,18.3333333 C2.29166667,17.5739418 2.90727514,16.9583333 3.66666667,16.9583333 Z" id="路径" fill="#FFFFFF" fill-rule="nonzero"></path>
                    <path d="M32.7870948,30.0370948 C33.2882677,29.535922 34.0800701,29.5025105 34.6199936,29.9368603 L34.7316385,30.0370948 L38.5555135,33.8609698 C39.0924844,34.3979407 39.0924844,35.2685426 38.5555135,35.8055135 C38.0543406,36.3066863 37.2625382,36.3400979 36.7226147,35.9057481 L36.6109698,35.8055135 L32.7870948,31.9816385 C32.2501239,31.4446676 32.2501239,30.5740657 32.7870948,30.0370948 Z" id="路径" fill="#FFFFFF" fill-rule="nonzero"></path>
                    <path d="M31.1666667,23.375 C28.3822668,23.375 26.125,25.6322668 26.125,28.4166667 C26.125,31.2010665 28.3822668,33.4583333 31.1666667,33.4583333 C32.5208585,33.4583333 33.7932626,32.920144 34.7317056,31.9815713 C35.670144,31.0432626 36.2083333,29.7708585 36.2083333,28.4166667 C36.2083333,25.6322668 33.9510665,23.375 31.1666667,23.375 Z M31.1666667,26.125 C32.4322835,26.125 33.4583333,27.1510499 33.4583333,28.4166667 C33.4583333,29.0339806 33.2150206,29.6092282 32.787162,30.0370277 C32.3592282,30.4650206 31.7839806,30.7083333 31.1666667,30.7083333 C29.9010499,30.7083333 28.875,29.6822835 28.875,28.4166667 C28.875,27.1510499 29.9010499,26.125 31.1666667,26.125 Z" id="路径" fill="#FFFFFF" fill-rule="nonzero"></path>
                </g>
            </g>
        </g>
    </g>
</svg>