<?xml version="1.0" encoding="UTF-8"?>
<svg width="38px" height="40px" viewBox="0 0 38 40" version="1.1" xmlns="http://www.w3.org/2000/svg" xmlns:xlink="http://www.w3.org/1999/xlink">
    <title>旅行票价-white</title>
    <defs>
        <linearGradient x1="20.8991618%" y1="90.7869046%" x2="69.4044656%" y2="43.1031982%" id="linearGradient-1">
            <stop stop-color="#1A329F" offset="0%"></stop>
            <stop stop-color="#A5C1FF" offset="100%"></stop>
        </linearGradient>
        <linearGradient x1="50%" y1="0%" x2="50%" y2="100%" id="linearGradient-2">
            <stop stop-color="#3861CD" offset="0%"></stop>
            <stop stop-color="#1A329F" offset="100%"></stop>
        </linearGradient>
        <linearGradient x1="14.6616758%" y1="80.3566852%" x2="73.5636271%" y2="44.8668808%" id="linearGradient-3">
            <stop stop-color="#1A329F" offset="0%"></stop>
            <stop stop-color="#A5C1FF" offset="100%"></stop>
        </linearGradient>
    </defs>
    <g id="页面-1" stroke="none" stroke-width="1" fill="none" fill-rule="evenodd">
        <g id="官网备份" transform="translate(-441.000000, -2483.000000)">
            <g id="旅行票价-white" transform="translate(441.362455, 2483.782766)">
                <path d="M19.4613926,2.65982338 C9.58928674,2.65982338 1.58639256,10.6627176 1.58639256,20.5348234 C1.58639256,30.4069292 9.58928674,38.4098234 19.4613926,38.4098234 C29.3334984,38.4098234 37.3363926,30.4069292 37.3363926,20.5348234 C37.3363926,10.6627176 29.3334984,2.65982338 19.4613926,2.65982338 Z M19.4613926,5.40982338 C27.8147153,5.40982338 34.5863926,12.1815006 34.5863926,20.5348234 C34.5863926,28.8881461 27.8147153,35.6598234 19.4613926,35.6598234 C11.1080698,35.6598234 4.33639256,28.8881461 4.33639256,20.5348234 C4.33639256,12.1815006 11.1080698,5.40982338 19.4613926,5.40982338 Z" id="路径" fill="#1A329F" fill-rule="nonzero"></path>
                <path d="M0.737154399,24.5881463 C2.71022303,25.4046246 5.96763655,25.8957669 7.61340775,23.9757876 C9.2590482,22.0556776 7.79176719,19.0336358 9.61445946,18.0084613 C11.6126344,16.8844307 13.0553321,20.7069978 16.8093799,20.0323964 C20.563297,19.3576642 22.9667035,14.127182 22.9667035,11.511941 C22.9667035,8.8966999 20.7246573,8.8966999 20.563297,6.35233186 C20.3514624,3.01240749 22.9667035,1.05097668 22.9667035,1.05097668 C17.2823141,-0.986889804 11.678421,-0.0611559412 6.15502413,3.82817827 C0.631627276,7.71751248 -1.1743293,14.6375018 0.737154399,24.5881463 Z" id="路径" fill="url(#linearGradient-1)"></path>
                <path d="M19.4613926,2.65982338 C9.58928674,2.65982338 1.58639256,10.6627176 1.58639256,20.5348234 C1.58639256,30.4069292 9.58928674,38.4098234 19.4613926,38.4098234 C29.3334984,38.4098234 37.3363926,30.4069292 37.3363926,20.5348234 C37.3363926,10.6627176 29.3334984,2.65982338 19.4613926,2.65982338 Z M19.4613926,5.40982338 C27.8147153,5.40982338 34.5863926,12.1815006 34.5863926,20.5348234 C34.5863926,28.8881461 27.8147153,35.6598234 19.4613926,35.6598234 C11.1080698,35.6598234 4.33639256,28.8881461 4.33639256,20.5348234 C4.33639256,12.1815006 11.1080698,5.40982338 19.4613926,5.40982338 Z" id="路径" fill="url(#linearGradient-2)" fill-rule="nonzero"></path>
                <path d="M23.6934988,32.0824662 C22.2395047,30.8652249 21.0153001,30.0738172 21.0160831,28.0651681 C21.0167731,26.0565191 22.3543995,26.7260687 23.6934988,25.3869694 C25.0327321,24.04787 24.3630485,21.3696713 25.7026835,20.7001216 C27.0424525,20.0305719 31.2031681,21.444393 34.4066956,24.04787 C32.1415888,27.2058389 30.4017486,29.3681567 29.1871749,30.5348234 C28.0510311,31.6261538 26.2198057,32.1420347 23.6934988,32.0824662 Z" id="路径" fill="url(#linearGradient-3)"></path>
                <path d="M19.4613926,2.65982338 C9.58928674,2.65982338 1.58639256,10.6627176 1.58639256,20.5348234 C1.58639256,30.4069292 9.58928674,38.4098234 19.4613926,38.4098234 C29.3334984,38.4098234 37.3363926,30.4069292 37.3363926,20.5348234 C37.3363926,10.6627176 29.3334984,2.65982338 19.4613926,2.65982338 Z M19.4613926,5.40982338 C27.8147153,5.40982338 34.5863926,12.1815006 34.5863926,20.5348234 C34.5863926,28.8881461 27.8147153,35.6598234 19.4613926,35.6598234 C11.1080698,35.6598234 4.33639256,28.8881461 4.33639256,20.5348234 C4.33639256,12.1815006 11.1080698,5.40982338 19.4613926,5.40982338 Z" id="路径" fill="#FFFFFF" fill-rule="nonzero"></path>
            </g>
        </g>
    </g>
</svg>