<?xml version="1.0" encoding="UTF-8"?>
<svg width="51px" height="51px" viewBox="0 0 51 51" version="1.1" xmlns="http://www.w3.org/2000/svg" xmlns:xlink="http://www.w3.org/1999/xlink">
    <title>品牌保护-white</title>
    <defs>
        <linearGradient x1="22.7558886%" y1="90.7869046%" x2="68.1663985%" y2="43.1031982%" id="linearGradient-1">
            <stop stop-color="#1A329F" offset="0%"></stop>
            <stop stop-color="#A5C1FF" offset="100%"></stop>
        </linearGradient>
    </defs>
    <g id="页面-1" stroke="none" stroke-width="1" fill="none" fill-rule="evenodd">
        <g id="官网备份" transform="translate(-776.000000, -2201.000000)">
            <g id="品牌保护-white" transform="translate(776.976663, 2201.919336)">
                <rect id="矩形" x="0" y="0" width="50" height="50"></rect>
                <g id="保护_protect" transform="translate(3.000000, 2.541667)">
                    <rect id="矩形" fill-opacity="0.01" fill="#FFFFFF" fill-rule="nonzero" x="0" y="0" width="44" height="44"></rect>
                    <polygon id="路径" fill-opacity="0.01" fill="#FFFFFF" fill-rule="nonzero" points="44 0.916666667 0 0.916666667 0 44.9166667 44 44.9166667"></polygon>
                    <path d="M12.1955342,5.4031339 L27.5685418,0.916666667 L42.9268667,5.4031339 L42.9268667,17.4276436 C42.9268667,27.0981964 36.7380886,32.8596674 27.56342,35.9166667 C18.3862758,32.8597527 12.1955342,27.0963183 12.1955342,17.4233753 L12.1955342,5.4031339 Z" id="路径" fill="url(#linearGradient-1)"></path>
                    <path d="M21.6226718,2.34672838 L5.11478847,7.16439838 C4.52822757,7.33558065 4.125,7.87330717 4.125,8.48433667 L4.125,20.3596417 C4.125,30.9516015 10.69892,38.934542 21.5678432,42.5549888 C21.8499578,42.6489614 22.1549338,42.6489478 22.4370399,42.5549501 C33.3032694,38.9343227 39.875,30.9535704 39.875,20.364225 L39.875,8.48433667 C39.875,7.87343808 39.4719421,7.3357938 38.8855509,7.16449746 L22.3934342,2.34682746 C22.1417769,2.27331345 21.8743479,2.27327908 21.6226718,2.34672838 Z M22.007,5.099 L37.125,9.515 L37.125,20.364225 L37.1213799,20.7683173 C36.9622082,29.6257083 31.5616625,36.3227519 22.4099892,39.6525659 L22.002,39.797 L21.6063297,39.6568543 C12.3062706,36.2780997 6.875,29.423744 6.875,20.3596417 L6.875,9.515 L22.007,5.099 Z" id="路径" fill="#FFFFFF" fill-rule="nonzero"></path>
                    <path d="M28.1112338,16.8434088 C28.6482047,16.3064379 29.5188066,16.3064379 30.0557775,16.8434088 C30.5569503,17.3445816 30.5903619,18.1363841 30.1560121,18.6763076 L30.0557775,18.7879525 L21.6871388,27.1565912 C21.1859659,27.657764 20.3941634,27.6911756 19.85424,27.2568258 L19.7425951,27.1565912 L14.8608892,22.2748853 C14.3239183,21.7379144 14.3239183,20.8673125 14.8608892,20.3303416 C15.362062,19.8291688 16.1538645,19.7957573 16.6937879,20.230107 L16.8054328,20.3303416 L20.715,24.24 L28.1112338,16.8434088 Z" id="路径" fill="#FFFFFF" fill-rule="nonzero"></path>
                </g>
            </g>
        </g>
    </g>
</svg>