<?xml version="1.0" encoding="UTF-8"?>
<svg width="51px" height="51px" viewBox="0 0 51 51" version="1.1" xmlns="http://www.w3.org/2000/svg" xmlns:xlink="http://www.w3.org/1999/xlink">
    <title>更多-white</title>
    <defs>
        <linearGradient x1="18.4205605%" y1="80.4048482%" x2="81.6594874%" y2="18.1561132%" id="linearGradient-1">
            <stop stop-color="#1C34A0" offset="0%"></stop>
            <stop stop-color="#A7C1FF" offset="99.9945367%"></stop>
        </linearGradient>
    </defs>
    <g id="页面-1" stroke="none" stroke-width="1" fill="none" fill-rule="evenodd">
        <g id="官网备份" transform="translate(-1421.000000, -2483.000000)">
            <g id="系统_system" transform="translate(1421.182101, 2483.782766)">
                <rect id="矩形" x="0" y="0" width="50" height="50"></rect>
                <g id="编组-25" transform="translate(3.653281, 4.500000)">
                    <rect id="矩形" fill-opacity="0.01" fill="#FFFFFF" fill-rule="nonzero" x="9.9475983e-14" y="9.9475983e-14" width="41" height="41"></rect>
                    <path d="M26.0028476,33.3811797 C35.2208219,33.3811797 42.6934374,25.9085642 42.6934374,16.6905899 C42.6934374,7.47263936 35.2208219,-2.27373675e-13 26.0028476,-2.27373675e-13 C16.7848732,-2.27373675e-13 9.31225773,7.47263936 9.31225773,16.6905899 C9.31225773,25.9085642 16.7848732,33.3811797 26.0028476,33.3811797 Z" id="路径备份-3" fill="url(#linearGradient-1)"></path>
                    <path d="M16.3333333,3.625 L5.875,3.625 C4.63235931,3.625 3.625,4.63235931 3.625,5.875 L3.625,16.3333333 C3.625,17.575974 4.63235931,18.5833333 5.875,18.5833333 L16.3333333,18.5833333 C17.575974,18.5833333 18.5833333,17.575974 18.5833333,16.3333333 L18.5833333,5.875 C18.5833333,4.63235931 17.575974,3.625 16.3333333,3.625 Z M15.583,6.624 L15.583,15.583 L6.625,15.583 L6.625,6.624 L15.583,6.624 Z" id="矩形" fill="#FFFFFF" fill-rule="nonzero"></path>
                    <path d="M16.3333333,22.4166667 L5.875,22.4166667 C4.63235931,22.4166667 3.625,23.424026 3.625,24.6666667 L3.625,35.125 C3.625,36.3676407 4.63235931,37.375 5.875,37.375 L16.3333333,37.375 C17.575974,37.375 18.5833333,36.3676407 18.5833333,35.125 L18.5833333,24.6666667 C18.5833333,23.424026 17.575974,22.4166667 16.3333333,22.4166667 Z M15.583,25.416 L15.583,34.374 L6.625,34.374 L6.625,25.416 L15.583,25.416 Z" id="矩形" fill="#FFFFFF" fill-rule="nonzero"></path>
                    <path d="M29.8958333,3.08358322 C25.466184,3.08358322 21.8752499,6.67452089 21.8752499,11.1041667 C21.8752499,15.5338189 25.4661811,19.1247501 29.8958333,19.1247501 C34.3254855,19.1247501 37.9164168,15.5338189 37.9164168,11.1041667 C37.9164168,6.67452089 34.3254827,3.08358322 29.8958333,3.08358322 Z M29.8958333,6.08358322 C32.6686277,6.08358322 34.9164168,8.33137447 34.9164168,11.1041667 C34.9164168,13.8769646 32.6686313,16.1247501 29.8958333,16.1247501 C27.1230354,16.1247501 24.8752499,13.8769646 24.8752499,11.1041667 C24.8752499,8.33137447 27.1230389,6.08358322 29.8958333,6.08358322 Z" id="路径" fill="#FFFFFF" fill-rule="nonzero"></path>
                    <path d="M35.125,22.4166667 L24.6666667,22.4166667 C23.424026,22.4166667 22.4166667,23.424026 22.4166667,24.6666667 L22.4166667,35.125 C22.4166667,36.3676407 23.424026,37.375 24.6666667,37.375 L35.125,37.375 C36.3676407,37.375 37.375,36.3676407 37.375,35.125 L37.375,24.6666667 C37.375,23.424026 36.3676407,22.4166667 35.125,22.4166667 Z M34.375,25.416 L34.375,34.374 L25.416,34.374 L25.416,25.416 L34.375,25.416 Z" id="矩形" fill="#FFFFFF" fill-rule="nonzero"></path>
                </g>
            </g>
        </g>
    </g>
</svg>