<?xml version="1.0" encoding="UTF-8"?>
<svg width="218px" height="219px" viewBox="0 0 218 219" version="1.1" xmlns="http://www.w3.org/2000/svg" xmlns:xlink="http://www.w3.org/1999/xlink">
    <title>编组 12</title>
    <defs>
        <linearGradient x1="50%" y1="0%" x2="50%" y2="100%" id="linearGradient-1">
            <stop stop-color="#3861CD" offset="0%"></stop>
            <stop stop-color="#1A329F" offset="100%"></stop>
        </linearGradient>
        <path d="M52.4419624,25.4419624 L137.45943,25.4419624 C152.371118,25.4419624 164.45943,37.5302741 164.45943,52.4419624 L164.45943,137.45943 C164.45943,152.371118 152.371118,164.45943 137.45943,164.45943 L52.4419624,164.45943 C37.5302741,164.45943 25.4419624,152.371118 25.4419624,137.45943 L25.4419624,52.4419624 C25.4419624,37.5302741 37.5302741,25.4419624 52.4419624,25.4419624 Z" id="path-2"></path>
        <filter x="-11.9%" y="-9.7%" width="123.7%" height="123.7%" filterUnits="objectBoundingBox" id="filter-4">
            <feOffset dx="0" dy="3" in="SourceAlpha" result="shadowOffsetOuter1"></feOffset>
            <feGaussianBlur stdDeviation="5" in="shadowOffsetOuter1" result="shadowBlurOuter1"></feGaussianBlur>
            <feColorMatrix values="0 0 0 0 0.11372549   0 0 0 0 0.211764706   0 0 0 0 0.654901961  0 0 0 0.214898383 0" type="matrix" in="shadowBlurOuter1"></feColorMatrix>
        </filter>
        <filter id="filter-5">
            <feColorMatrix in="SourceGraphic" type="matrix" values="0 0 0 0 0.791959 0 0 0 0 0.829500 0 0 0 0 1.000000 0 0 0 1.000000 0"></feColorMatrix>
        </filter>
        <path d="M82.5388057,159.050071 C114.689406,159.050071 137.187068,131.50291 137.187068,99.3523091 C137.187068,67.2017085 111.123883,41.1385234 78.9732821,41.1385234 C46.8226815,41.1385234 20.7594965,67.2017085 20.7594965,99.3523091 C20.7594965,99.3523091 16.0498846,110.79629 23.4941241,120.061325 C27.9712018,125.633457 49.6913927,137.6675 60.5013419,143.94042 C68.1777752,148.394988 82.5388057,159.050071 82.5388057,159.050071 Z" id="path-6"></path>
        <filter x="-5.9%" y="-4.2%" width="111.9%" height="111.9%" filterUnits="objectBoundingBox" id="filter-8">
            <feOffset dx="0" dy="2" in="SourceAlpha" result="shadowOffsetOuter1"></feOffset>
            <feGaussianBlur stdDeviation="2" in="shadowOffsetOuter1" result="shadowBlurOuter1"></feGaussianBlur>
            <feColorMatrix values="0 0 0 0 0.474509804   0 0 0 0 0.568627451   0 0 0 0 0.933333333  0 0 0 1 0" type="matrix" in="shadowBlurOuter1"></feColorMatrix>
        </filter>
        <linearGradient x1="70.0694203%" y1="7.22936297%" x2="25.2092065%" y2="91.3672505%" id="linearGradient-9">
            <stop stop-color="#91A9F4" offset="0%"></stop>
            <stop stop-color="#5C75E6" offset="100%"></stop>
        </linearGradient>
        <linearGradient x1="54.7140886%" y1="2.89026356%" x2="44.1769121%" y2="95.5639758%" id="linearGradient-10">
            <stop stop-color="#91A9F4" offset="0%"></stop>
            <stop stop-color="#5C75E6" offset="100%"></stop>
        </linearGradient>
        <linearGradient x1="93.284395%" y1="38.9041653%" x2="40.3721%" y2="50%" id="linearGradient-11">
            <stop stop-color="#FFDC8A" offset="0%"></stop>
            <stop stop-color="#FFB662" offset="100%"></stop>
        </linearGradient>
        <linearGradient x1="93.284395%" y1="31.4391468%" x2="5.77483181%" y2="50%" id="linearGradient-12">
            <stop stop-color="#FFDC8A" offset="0%"></stop>
            <stop stop-color="#FFCC7C" offset="100%"></stop>
        </linearGradient>
        <circle id="path-13" cx="19.7813951" cy="19.7813951" r="19.7813951"></circle>
        <filter x="-17.7%" y="-12.6%" width="135.4%" height="135.4%" filterUnits="objectBoundingBox" id="filter-14">
            <feOffset dx="0" dy="2" in="SourceAlpha" result="shadowOffsetOuter1"></feOffset>
            <feGaussianBlur stdDeviation="2" in="shadowOffsetOuter1" result="shadowBlurOuter1"></feGaussianBlur>
            <feColorMatrix values="0 0 0 0 1   0 0 0 0 0.741176471   0 0 0 0 0.42745098  0 0 0 1 0" type="matrix" in="shadowBlurOuter1"></feColorMatrix>
        </filter>
    </defs>
    <g id="页面-1" stroke="none" stroke-width="1" fill="none" fill-rule="evenodd">
        <g id="官网备份" transform="translate(-840.000000, -1124.000000)">
            <g id="编组-12" transform="translate(855.446707, 1135.902976)">
                <mask id="mask-3" fill="white">
                    <use xlink:href="#path-2"></use>
                </mask>
                <g id="矩形" transform="translate(94.950696, 94.950696) rotate(-330.000000) translate(-94.950696, -94.950696) ">
                    <use fill="black" fill-opacity="1" filter="url(#filter-4)" xlink:href="#path-2"></use>
                    <use fill="url(#linearGradient-1)" fill-rule="evenodd" xlink:href="#path-2"></use>
                </g>
                <g filter="url(#filter-5)" id="编组-7" opacity="0.149600074">
                    <g mask="url(#mask-3)">
                        <g transform="translate(64.717831, -10.115969)" fill="#1A329F" fill-rule="nonzero">
                            <path d="M4.875,50.6750714 C6.30208333,50.6750714 7.39322917,50.1242901 8.1484375,49.0227276 C8.90364583,47.9211651 9.28125,46.357363 9.28125,44.3313214 C9.28125,40.216738 7.890625,38.1594464 5.109375,38.1594464 C3.65104167,38.1594464 2.53645833,38.7115297 1.765625,39.8156964 C0.994791667,40.919863 0.609375,42.5188214 0.609375,44.6125714 C0.609375,48.654238 2.03125,50.6750714 4.875,50.6750714 Z M4.953125,48.7375714 C3.76041667,48.7375714 3.1640625,47.341738 3.1640625,44.5500714 C3.1640625,41.5813214 3.77604167,40.0969464 5,40.0969464 C6.140625,40.0969464 6.7109375,41.5396547 6.7109375,44.4250714 C6.7109375,47.3000714 6.125,48.7375714 4.953125,48.7375714 Z" id="0"></path>
                            <path d="M17.9639892,35.7291284 C19.3910726,35.7291284 20.4822184,35.1783472 21.2374267,34.0767847 C21.9926351,32.9752222 22.3702392,31.4114201 22.3702392,29.3853784 C22.3702392,25.2707951 20.9796142,23.2135034 18.1983642,23.2135034 C16.7400309,23.2135034 15.6254476,23.7655868 14.8546142,24.8697534 C14.0837809,25.9739201 13.6983642,27.5728784 13.6983642,29.6666284 C13.6983642,33.7082951 15.1202392,35.7291284 17.9639892,35.7291284 Z M18.0421142,33.7916284 C16.8494059,33.7916284 16.2530517,32.3957951 16.2530517,29.6041284 C16.2530517,26.6353784 16.8650309,25.1510034 18.0889892,25.1510034 C19.2296142,25.1510034 19.7999267,26.5937118 19.7999267,29.4791284 C19.7999267,32.3541284 19.2139892,33.7916284 18.0421142,33.7916284 Z" id="0"></path>
                            <path d="M31.0529785,26.4978107 C32.4800618,26.4978107 33.5712077,25.9470295 34.326416,24.845467 C35.0816243,23.7439045 35.4592285,22.1801024 35.4592285,20.1540607 C35.4592285,16.0394774 34.0686035,13.9821857 31.2873535,13.9821857 C29.8290202,13.9821857 28.7144368,14.5342691 27.9436035,15.6384357 C27.1727702,16.7426024 26.7873535,18.3415607 26.7873535,20.4353107 C26.7873535,24.4769774 28.2092285,26.4978107 31.0529785,26.4978107 Z M31.1311035,24.5603107 C29.9383952,24.5603107 29.342041,23.1644774 29.342041,20.3728107 C29.342041,17.4040607 29.9540202,15.9196857 31.1779785,15.9196857 C32.3186035,15.9196857 32.888916,17.3623941 32.888916,20.2478107 C32.888916,23.1228107 32.3029785,24.5603107 31.1311035,24.5603107 Z" id="0"></path>
                            <path d="M17.9639892,54.1917638 C19.3910726,54.1917638 20.4822184,53.6409826 21.2374267,52.5394201 C21.9926351,51.4378576 22.3702392,49.8740555 22.3702392,47.8480138 C22.3702392,43.7334305 20.9796142,41.6761388 18.1983642,41.6761388 C16.7400309,41.6761388 15.6254476,42.2282222 14.8546142,43.3323888 C14.0837809,44.4365555 13.6983642,46.0355138 13.6983642,48.1292638 C13.6983642,52.1709305 15.1202392,54.1917638 17.9639892,54.1917638 Z M18.0421142,52.2542638 C16.8494059,52.2542638 16.2530517,50.8584305 16.2530517,48.0667638 C16.2530517,45.0980138 16.8650309,43.6136388 18.0889892,43.6136388 C19.2296142,43.6136388 19.7999267,45.0563472 19.7999267,47.9417638 C19.7999267,50.8167638 19.2139892,52.2542638 18.0421142,52.2542638 Z" id="0"></path>
                            <path d="M44.3391827,54.1917638 C45.766266,54.1917638 46.8574118,53.6409826 47.6126202,52.5394201 C48.3678285,51.4378576 48.7454327,49.8740555 48.7454327,47.8480138 C48.7454327,43.7334305 47.3548077,41.6761388 44.5735577,41.6761388 C43.1152243,41.6761388 42.000641,42.2282222 41.2298077,43.3323888 C40.4589743,44.4365555 40.0735577,46.0355138 40.0735577,48.1292638 C40.0735577,52.1709305 41.4954327,54.1917638 44.3391827,54.1917638 Z M44.4173077,52.2542638 C43.2245993,52.2542638 42.6282452,50.8584305 42.6282452,48.0667638 C42.6282452,45.0980138 43.2402243,43.6136388 44.4641827,43.6136388 C45.6048077,43.6136388 46.1751202,45.0563472 46.1751202,47.9417638 C46.1751202,50.8167638 45.5891827,52.2542638 44.4173077,52.2542638 Z" id="0"></path>
                            <path d="M84.7811459,74.852332 C86.2082292,74.852332 87.299375,74.3015507 88.0545834,73.1999882 C88.8097917,72.0984257 89.1873959,70.5346237 89.1873959,68.508582 C89.1873959,64.3939987 87.7967709,62.336707 85.0155209,62.336707 C83.5571875,62.336707 82.4426042,62.8887903 81.6717709,63.992957 C80.9009375,65.0971237 80.5155209,66.696082 80.5155209,68.789832 C80.5155209,72.8314987 81.9373959,74.852332 84.7811459,74.852332 Z M84.8592709,72.914832 C83.6665625,72.914832 83.0702084,71.5189987 83.0702084,68.727332 C83.0702084,65.758582 83.6821875,64.274207 84.9061459,64.274207 C86.0467709,64.274207 86.6170834,65.7169153 86.6170834,68.602332 C86.6170834,71.477332 86.0311459,72.914832 84.8592709,72.914832 Z" id="0"></path>
                            <path d="M97.4757053,85.0614303 C98.9027886,85.0614303 99.9939344,84.510649 100.749143,83.4090865 C101.504351,82.307524 101.881955,80.7437219 101.881955,78.7176803 C101.881955,74.6030969 100.49133,72.5458053 97.7100803,72.5458053 C96.2517469,72.5458053 95.1371636,73.0978886 94.3663303,74.2020553 C93.5954969,75.3062219 93.2100803,76.9051803 93.2100803,78.9989303 C93.2100803,83.0405969 94.6319553,85.0614303 97.4757053,85.0614303 Z M97.5538303,83.1239303 C96.3611219,83.1239303 95.7647678,81.7280969 95.7647678,78.9364303 C95.7647678,75.9676803 96.3767469,74.4833053 97.6007053,74.4833053 C98.7413303,74.4833053 99.3116428,75.9260136 99.3116428,78.8114303 C99.3116428,81.6864303 98.7257053,83.1239303 97.5538303,83.1239303 Z" id="0"></path>
                            <path d="M84.7811459,111.777603 C86.2082292,111.777603 87.299375,111.226822 88.0545834,110.125259 C88.8097917,109.023697 89.1873959,107.459894 89.1873959,105.433853 C89.1873959,101.319269 87.7967709,99.2619778 85.0155209,99.2619778 C83.5571875,99.2619778 82.4426042,99.8140611 81.6717709,100.918228 C80.9009375,102.022394 80.5155209,103.621353 80.5155209,105.715103 C80.5155209,109.756769 81.9373959,111.777603 84.7811459,111.777603 Z M84.8592709,109.840103 C83.6665625,109.840103 83.0702084,108.444269 83.0702084,105.652603 C83.0702084,102.683853 83.6821875,101.199478 84.9061459,101.199478 C86.0467709,101.199478 86.6170834,102.642186 86.6170834,105.527603 C86.6170834,108.402603 86.0311459,109.840103 84.8592709,109.840103 Z" id="0"></path>
                            <path d="M84.7811459,130.240238 C86.2082292,130.240238 87.299375,129.689457 88.0545834,128.587894 C88.8097917,127.486332 89.1873959,125.92253 89.1873959,123.896488 C89.1873959,119.781905 87.7967709,117.724613 85.0155209,117.724613 C83.5571875,117.724613 82.4426042,118.276696 81.6717709,119.380863 C80.9009375,120.48503 80.5155209,122.083988 80.5155209,124.177738 C80.5155209,128.219405 81.9373959,130.240238 84.7811459,130.240238 Z M84.8592709,128.302738 C83.6665625,128.302738 83.0702084,126.906905 83.0702084,124.115238 C83.0702084,121.146488 83.6821875,119.662113 84.9061459,119.662113 C86.0467709,119.662113 86.6170834,121.104821 86.6170834,123.990238 C86.6170834,126.865238 86.0311459,128.302738 84.8592709,128.302738 Z" id="0"></path>
                            <path d="M6.7890625,33.8584522 L6.7890625,21.4912647 L5.1796875,21.4912647 C4.13802083,22.2829313 2.90364583,22.887098 1.4765625,23.3037647 L1.4765625,23.3037647 L1.4765625,25.4678272 C1.9296875,25.4157438 2.42708333,25.2816293 2.96875,25.0654834 C3.51041667,24.8493376 3.9375,24.605848 4.25,24.3350147 L4.25,24.3350147 L4.25,33.8584522 L6.7890625,33.8584522 Z" id="1"></path>
                            <path d="M19.8780517,17.0555556 L19.8780517,4.68836806 L18.2686767,4.68836806 C17.2270101,5.48003472 15.9926351,6.08420139 14.5655517,6.50086806 L14.5655517,6.50086806 L14.5655517,8.66493056 C15.0186767,8.61284722 15.5160726,8.47873264 16.0577392,8.26258681 C16.5994059,8.04644097 17.0264892,7.80295139 17.3389892,7.53211806 L17.3389892,7.53211806 L17.3389892,17.0555556 L19.8780517,17.0555556 Z" id="1"></path>
                            <path d="M33.1642559,44.7495086 L33.1642559,32.3823211 L31.5548809,32.3823211 C30.5132142,33.1739878 29.2788392,33.7781545 27.8517559,34.1948211 L27.8517559,34.1948211 L27.8517559,36.3588836 C28.3048809,36.3068003 28.8022767,36.1726857 29.3439434,35.9565399 C29.8856101,35.7403941 30.3126934,35.4969045 30.6251934,35.2260711 L30.6251934,35.2260711 L30.6251934,44.7495086 L33.1642559,44.7495086 Z" id="1"></path>
                            <path d="M86.6952084,93.1040299 L86.6952084,80.7368424 L85.0858334,80.7368424 C84.0441667,81.528509 82.8097917,82.1326757 81.3827084,82.5493424 L81.3827084,82.5493424 L81.3827084,84.7134049 C81.8358334,84.6613215 82.3332292,84.527207 82.8748959,84.3110611 C83.4165625,84.0949153 83.8436459,83.8514257 84.1561459,83.5805924 L84.1561459,83.5805924 L84.1561459,93.1040299 L86.6952084,93.1040299 Z" id="1"></path>
                            <path d="M46.0560302,37.3751446 L46.0560302,25.0079571 L44.4466552,25.0079571 C43.4049886,25.7996238 42.1706136,26.4037905 40.7435302,26.8204571 L40.7435302,26.8204571 L40.7435302,28.9845196 C41.1966552,28.9324363 41.6940511,28.7983217 42.2357177,28.5821759 C42.7773844,28.36603 43.2044677,28.1225405 43.5169677,27.8517071 L43.5169677,27.8517071 L43.5169677,37.3751446 L46.0560302,37.3751446 Z" id="1"></path>
                            <path d="M58.9478046,53.6398472 L58.9478046,41.2726597 L57.3384296,41.2726597 C56.2967629,42.0643264 55.0623879,42.6684931 53.6353046,43.0851597 L53.6353046,43.0851597 L53.6353046,45.2492222 C54.0884296,45.1971389 54.5858254,45.0630243 55.1274921,44.8468785 C55.6691587,44.6307326 56.0962421,44.3872431 56.4087421,44.1164097 L56.4087421,44.1164097 L56.4087421,53.6398472 L58.9478046,53.6398472 Z" id="1"></path>
                            <path d="M99.3897678,69.9045498 L99.3897678,57.5373623 L97.7803928,57.5373623 C96.7387261,58.329029 95.5043511,58.9331957 94.0772678,59.3498623 L94.0772678,59.3498623 L94.0772678,61.5139248 C94.5303928,61.4618415 95.0277886,61.3277269 95.5694553,61.1115811 C96.1111219,60.8954352 96.5382053,60.6519457 96.8507053,60.3811123 L96.8507053,60.3811123 L96.8507053,69.9045498 L99.3897678,69.9045498 Z" id="1"></path>
                            <path d="M99.3897678,103.313128 L99.3897678,90.9459406 L97.7803928,90.9459406 C96.7387261,91.7376073 95.5043511,92.341774 94.0772678,92.7584406 L94.0772678,92.7584406 L94.0772678,94.9225031 C94.5303928,94.8704198 95.0277886,94.7363052 95.5694553,94.5201594 C96.1111219,94.3040136 96.5382053,94.060524 96.8507053,93.7896906 L96.8507053,93.7896906 L96.8507053,103.313128 L99.3897678,103.313128 Z" id="1"></path>
                            <path d="M99.3897678,123.632717 L99.3897678,111.26553 L97.7803928,111.26553 C96.7387261,112.057196 95.5043511,112.661363 94.0772678,113.07803 L94.0772678,113.07803 L94.0772678,115.242092 C94.5303928,115.190009 95.0277886,115.055894 95.5694553,114.839748 C96.1111219,114.623603 96.5382053,114.380113 96.8507053,114.10928 L96.8507053,114.10928 L96.8507053,123.632717 L99.3897678,123.632717 Z" id="1"></path>
                            <path d="M33.1642559,62.8711649 L33.1642559,50.5039774 L31.5548809,50.5039774 C30.5132142,51.2956441 29.2788392,51.8998108 27.8517559,52.3164774 L27.8517559,52.3164774 L27.8517559,54.4805399 C28.3048809,54.4284566 28.8022767,54.294342 29.3439434,54.0781962 C29.8856101,53.8620503 30.3126934,53.6185608 30.6251934,53.3477274 L30.6251934,53.3477274 L30.6251934,62.8711649 L33.1642559,62.8711649 Z" id="1"></path>
                        </g>
                    </g>
                </g>
                <path d="M137.45943,25.4419624 C152.371118,25.4419624 164.45943,37.5302741 164.45943,52.4419624 L164.45943,137.45943 C164.45943,152.371118 152.371118,164.45943 137.45943,164.45943 L52.4419624,164.45943 C37.5302741,164.45943 25.4419624,152.371118 25.4419624,137.45943 L25.4419624,52.4419624 C25.4419624,37.5302741 37.5302741,25.4419624 52.4419624,25.4419624 L137.45943,25.4419624 Z M137.45943,35.4419624 L52.4419624,35.4419624 C43.1610393,35.4419624 35.6171664,42.879158 35.4449702,52.1189227 L35.4419624,52.4419624 L35.4419624,137.45943 C35.4419624,146.740353 42.879158,154.284226 52.1189227,154.456422 L52.4419624,154.45943 L137.45943,154.45943 C146.740353,154.45943 154.284226,147.022235 154.456422,137.78247 L154.45943,137.45943 L154.45943,52.4419624 C154.45943,43.1610393 147.022235,35.6171664 137.78247,35.4449702 L137.45943,35.4419624 Z" id="矩形" fill="#FFFFFF" fill-rule="nonzero" mask="url(#mask-3)" transform="translate(94.950696, 94.950696) rotate(-330.000000) translate(-94.950696, -94.950696) "></path>
                <g id="保护_protect" mask="url(#mask-3)">
                    <g transform="translate(14.590865, 35.374130)" id="世界_world">
                        <path d="M64.2913905,0 C57.6959641,0 51.3333267,0.996683002 45.3458779,2.84764937 C39.5133325,4.65072873 33.2255528,6.28186372 29.047952,10.5572132 C27.4427672,12.1999566 24.1340219,19.9287887 19.4598495,26.6842254 C13.1047261,35.8690887 6.35389046,49.5564711 0.383758003,59.5730032 C-0.377526608,60.8502666 0.228890464,62.5532423 0.228890464,64.0625 C0.228890464,77.260668 0.499113997,93.4627899 11.0612622,99.7193437 C23.6876071,107.198637 30.7196681,110.055398 39.0248647,114.946475 C47.5195262,119.949132 50.7363413,121.875659 60.4925133,128.014229 C61.5578699,128.68455 63.0160507,128.125 64.2913905,128.125 C99.6721475,128.125 128.35389,99.443257 128.35389,64.0625 C128.35389,28.681743 99.6721475,0 64.2913905,0 Z M64.2913905,6.125 C96.2894034,6.125 122.22889,32.064487 122.22889,64.0625 C122.22889,96.060513 96.2894034,122 64.2913905,122 C32.2933775,122 6.35389046,96.060513 6.35389046,64.0625 C6.35389046,56.4279476 7.83055733,49.1382911 10.5138566,42.463565 C12.5918398,37.2945671 17.557405,33.5917954 20.9572507,29.2857766 C26.5506377,22.2015641 31.5992638,15.3575205 39.8725683,11.5069815 C47.2931513,8.05331383 55.5670787,6.125 64.2913905,6.125 Z" id="路径" fill="#7991EE" fill-rule="nonzero"></path>
                        <path d="M31.3806244,15.6251454 L30.8073165,9.5270356 L32.2875842,9.39386304 C32.5317718,9.37290483 32.7746982,9.3525657 33.0163645,9.33284636 L34.4512471,9.22197334 C34.9245057,9.18749856 35.3927312,9.15550857 35.8559315,9.126009 L37.2304644,9.04498721 C37.6836219,9.02047413 38.131762,8.99845713 38.5748923,8.97894183 L39.8892622,8.92790672 C47.9019597,8.65954146 54.2027558,9.2493185 58.8409446,10.7329709 C65.9172807,12.9965318 69.5499344,17.5972789 68.8802946,24.0070808 C68.4310188,28.3057181 66.8587469,31.3360081 64.1417651,33.2740742 C62.867111,34.1833051 61.6766779,34.7316714 59.9618204,35.206627 L59.3699432,35.362621 L58.7342103,35.515543 L58.0496123,35.6677589 L57.3111399,35.8216347 L55.1200865,36.2549663 L54.7970422,36.3231558 L54.1771915,36.463529 C50.2597662,37.3954926 48.4913863,38.737418 47.2792477,42.184752 C46.1060233,45.5214136 46.8757991,47.8710669 49.8144523,51.663742 L50.3170806,52.3011331 L51.401702,53.6618893 L51.8306096,54.2143196 L52.0871518,54.5544718 C52.8894571,55.6322794 53.4728913,56.5624773 53.9033058,57.526674 C55.9524278,62.1170329 53.9157196,66.1745057 47.7591484,69.9221304 C42.2273837,73.2894233 37.4948115,73.7049864 33.5564028,71.2376144 C31.5082857,69.9544903 30.050837,68.3131869 28.4193561,65.6125831 L28.0074177,64.9149576 C27.9380095,64.7948734 27.8681885,64.6728486 27.7978995,64.5488326 L27.3701055,63.7804363 C27.2977228,63.6482526 27.2247614,63.5139762 27.151166,63.3775564 L26.7015422,62.5329118 L25.5718887,60.3617985 L25.2368726,59.7315662 L24.9191459,59.1484011 L24.6172383,58.6103402 L24.3296795,58.1154206 L24.0549992,57.6616794 L23.7917271,57.2471538 L23.5383929,56.8698806 L23.2935262,56.5278972 L23.0556569,56.2192404 C22.6642222,55.7314941 22.2958166,55.3744303 21.919809,55.1071547 C18.6865722,52.8090174 13.1062332,53.2583358 5.04919965,56.9846191 L4.59903781,57.1950096 L1.98374311,51.6564304 C12.0744126,46.891657 19.9484116,46.1913211 25.4683778,50.1148321 C26.9154898,51.1434756 28.0070408,52.3944805 29.2166387,54.3482387 L29.5835331,54.9559291 C29.6454303,55.0608848 29.707741,55.1677174 29.7705244,55.276487 L30.1533711,55.9528297 C30.2831933,56.1863456 30.4153799,56.4280901 30.5504047,56.6785434 L30.9644669,57.4565106 L32.1011904,59.641067 L32.4819769,60.3568247 L32.8457564,61.022488 L33.1942451,61.6401001 C34.559907,64.0171697 35.5997851,65.2900406 36.8082044,66.0471027 C38.5165684,67.117375 40.7361826,66.9573378 44.2600483,64.8786316 L44.8343533,64.5307986 L45.3230062,64.2239195 L45.7710345,63.9322089 L46.1797506,63.6547281 L46.5504667,63.3905387 L46.8844951,63.138702 L47.1831482,62.8982793 C48.261859,61.997337 48.5897635,61.3272923 48.4995041,60.650231 L48.4666911,60.4732907 C48.4597143,60.443722 48.4520016,60.4141009 48.4435804,60.3844079 L48.3847708,60.2052303 C48.3736251,60.1751713 48.3618257,60.1450014 48.3493999,60.1147008 L48.1474589,59.6610825 L48.1041746,59.5713676 C48.0454576,59.4531198 47.980977,59.3379453 47.8897969,59.1968625 L47.6824345,58.8948954 L47.2286065,58.2892959 L45.2493815,55.7689129 C40.9436708,50.3129721 39.4311013,46.0399444 41.5010332,40.153038 C43.6090807,34.1577305 47.2623545,31.6887491 53.5111589,30.3348311 L54.7160137,30.0893512 L55.6536664,29.9065388 L56.240335,29.7870221 L56.7934506,29.6674179 L57.3140634,29.5466054 L57.8032236,29.4234637 C61.1197114,28.5507052 62.2016232,27.4243775 62.6699504,24.3145218 L62.7328553,23.8565766 L62.7884623,23.3705237 C63.2256813,19.1854576 59.663517,16.4025307 51.5512542,15.3940418 L50.7519738,15.3019979 C50.4807999,15.2731714 50.2048727,15.2462038 49.9241739,15.2211077 L49.0677437,15.1514462 L48.1825722,15.0930883 C47.7327826,15.0667478 47.2721735,15.0446743 46.8006824,15.0269099 L45.8431725,14.9971392 L44.856533,14.9789346 C44.3559125,14.9727363 43.8443268,14.9709034 43.3217135,14.973478 L42.2617652,14.9845166 C41.9035356,14.9901634 41.5403864,14.9977817 41.1722991,15.0073838 L40.0532045,15.0421544 L38.9043704,15.0889035 L37.7256858,15.1477061 L36.5170399,15.2186372 L35.2783217,15.3017716 L34.0094203,15.3971845 L32.7102249,15.5049508 C32.4911616,15.5239454 32.2708315,15.5434579 32.0492322,15.5634898 L31.3806244,15.6251454 Z" id="路径" fill="#7991EE" fill-rule="nonzero"></path>
                        <path d="M103.198761,13.2484605 C104.311084,14.5226176 104.179892,16.4572422 102.905735,17.5695655 L101.854778,18.4919369 C101.682058,18.6443513 101.510559,18.7961079 101.34028,18.9472059 L100.333259,19.8458813 L99.3555543,20.7287019 L98.4071868,21.5956216 L97.4881774,22.4465942 L96.5985469,23.2815738 L95.7383162,24.1005142 L94.9075061,24.9033694 L94.1061374,25.6900934 L93.3342309,26.46064 C93.2080362,26.5877138 93.0830699,26.7141116 92.9593325,26.8398324 L92.2316585,27.5860267 C92.1128384,27.7090359 91.9952482,27.8313664 91.8788881,27.953017 L91.1954934,28.6747552 C91.0840558,28.7936827 90.9738493,28.9119285 90.8648743,29.0294916 L90.2258058,29.7266702 C90.0177112,29.9563271 89.8145462,30.1832457 89.6163141,30.407418 L89.03642,31.0716892 L88.4861444,31.7194374 C88.3969012,31.826016 88.308893,31.9319042 88.2221201,32.0371011 L87.7163113,32.6599788 L87.2401731,33.2662185 C87.1632905,33.3658694 87.0876449,33.4648251 87.013237,33.5630847 L86.5816437,34.1442811 C86.30382,34.526166 86.0458115,34.8968822 85.8076458,35.2563682 L85.4759772,35.7657776 C85.4235849,35.847772 85.372619,35.9283296 85.3230547,36.0074752 L85.0422906,36.4656071 C84.9541771,36.6128037 84.8714722,36.754553 84.7939779,36.8910552 L84.5769287,37.2850206 L84.3899549,37.6487044 C84.3037889,37.823176 84.2284557,37.9867424 84.1632871,38.1400791 L84.0463047,38.4333131 L83.9552399,38.7004691 C83.6935667,39.54886 83.8440545,39.9826332 84.2087099,40.2019598 C86.3490115,41.4894042 87.8881383,41.7317399 90.0052196,41.3134836 L90.6568539,41.1715013 L91.0060027,41.0847042 L92.2234908,40.7467314 L92.8523071,40.5682842 C97.19141,39.3359502 100.042128,39.0125291 104.077562,39.8238645 C109.915138,40.9977109 113.201479,45.5517322 113.278047,50.993742 C113.350327,56.1309306 110.494747,60.859385 105.950425,60.859385 L105.79139,60.8585974 L105.248838,60.8466579 L102.202355,60.7017414 C101.269508,60.6560999 100.387542,60.6197939 99.5448583,60.5939959 L98.3088444,60.5633264 C95.8899406,60.5183355 93.7723831,60.5731921 91.6430109,60.7595511 L91.2280378,60.7976112 L90.4186816,60.8824363 C82.4624663,61.7890575 78.6283033,64.4535986 79.0627861,69.4874534 C79.5118551,74.6914015 81.6884954,78.2119014 86.1728535,82.2424091 L86.6711342,82.6827551 L89.9616737,85.4959925 L90.9745151,86.3810392 L91.2029938,86.5877305 C94.4864788,89.6124389 96.1526005,92.312087 96.1526005,95.846855 C96.1526005,100.294028 94.3882186,106.061381 90.8834151,113.253608 L90.3580956,114.316313 C90.2684726,114.49513 90.1778149,114.674798 90.086123,114.855317 L89.5235622,115.948674 L88.9361948,117.062556 L88.3240374,118.197036 C88.2199463,118.387837 88.1148229,118.579499 88.0086677,118.772024 L87.3593566,119.937538 C87.2490753,120.133521 87.1377628,120.330369 87.0254194,120.528084 L86.3389923,121.724797 C86.222527,121.925988 86.1050316,122.12805 85.9865064,122.330983 L85.2630006,123.559059 C84.3990898,125.013156 82.5199734,125.491596 81.0658766,124.627685 C79.6117798,123.763774 79.1333395,121.884658 79.9972503,120.430561 L80.3355517,119.858813 L80.9946276,118.730849 C81.1025268,118.544584 81.209453,118.359185 81.3154063,118.174652 L81.9394557,117.077872 L82.540175,116.001973 C82.7365283,115.646828 82.928996,115.295175 83.1175809,114.947026 L83.67169,113.913106 L84.2025192,112.900284 L84.7100851,111.908633 L85.1944044,110.938227 L85.6554938,109.989137 L86.0933701,109.061438 C86.164416,108.908607 86.2344953,108.756672 86.3036085,108.605632 L86.7066964,107.710153 C86.9024461,107.2678 87.0895065,106.833537 87.267887,106.407404 L87.6130777,105.565991 C87.6686816,105.427566 87.7233217,105.290048 87.7769984,105.153437 L88.0875009,104.344681 L88.3748989,103.557789 C89.4783039,100.454039 90.0276005,97.8767419 90.0276005,95.846855 C90.0276005,94.4670465 89.2616957,93.1729672 87.2949279,91.3179726 L86.9562296,91.0043988 L86.2234863,90.3605771 L82.4823076,87.1571557 C76.6831706,82.0471209 73.5799197,77.1924772 72.9604696,70.0141018 C72.5104087,64.7997606 74.6310426,60.7579442 78.7625303,58.1590976 C81.9146246,56.1763227 86.0711335,55.0987799 91.1090027,54.6578742 C94.2502465,54.382958 97.2898569,54.3662933 101.054383,54.5190202 L103.264049,54.6224898 L104.59869,54.6897251 L105.7072,54.7316963 L105.950425,54.734385 C106.281902,54.734385 107.184054,53.2405446 107.153654,51.0799118 C107.115461,48.3654516 105.694707,46.3966525 102.870181,45.8286839 C100.219138,45.2956843 98.3453068,45.4387947 95.3667941,46.2287969 L94.5256698,46.4602688 L92.5357135,47.0165099 L91.9710242,47.1546951 L91.6127478,47.2345325 C87.8789074,48.0553975 84.7010849,47.6458609 81.0516605,45.450642 C76.4898451,42.70688 76.8258728,37.723484 80.7015801,31.8735118 C81.2512384,31.0438605 81.8824112,30.1737482 82.5953342,29.2626528 L83.1453583,28.5716388 C83.5222647,28.105829 83.9196234,27.6297408 84.3374637,27.143309 L84.9795893,26.4058954 C85.0891716,26.2816975 85.200035,26.156851 85.3121799,26.031355 L86.0004306,25.2705764 C86.1177033,25.1424782 86.2362584,25.0137284 86.3560963,24.884326 L87.090522,24.1000723 C87.2154932,23.9680554 87.3417483,23.8353839 87.4692876,23.7020567 L88.2499379,22.8942178 C88.382616,22.758264 88.5165793,22.6216524 88.6518282,22.4843821 L89.4787528,21.6528479 L90.3365547,20.8054555 L91.2252557,19.9421561 L92.1448781,19.0629008 C92.3007265,18.9150259 92.4578642,18.7664841 92.6162917,18.6172744 L93.5823374,17.7139933 L94.5793597,16.794634 L95.6073807,15.8591473 L96.6664223,14.9074845 L97.7565067,13.9395965 L98.877656,12.9554345 C100.151813,11.8431112 102.086438,11.9743034 103.198761,13.2484605 Z" id="路径" fill="#7991EE" fill-rule="nonzero"></path>
                        <path d="M9.71045096,95.9219693 C12.4904955,94.7092893 14.580264,89.18657 15.979726,88.6211 C27.7133505,83.88079 36.4198805,82.76327 42.0986755,85.26915 C52.1408005,89.700495 48.2801105,98.649805 51.4255755,101.946855 C54.5707355,105.243905 62.4250955,104.28468 62.4250955,110.5567 C62.4250955,114.73825 61.0205705,119.461785 58.2115205,124.727305 L9.71045096,95.9219693 Z" id="路径" fill="#FFFFFF"></path>
                        <path d="M14.8325727,85.7815673 C27.2620407,80.760141 36.7165274,79.5467609 43.3350561,82.4673168 C48.1542486,84.593909 50.8170885,87.8216806 52.031433,92.1265698 L52.1809071,92.6788881 L52.2677429,93.0297315 L52.3469092,93.3793425 L52.4206186,93.7385745 L52.5257908,94.3192044 L52.5955376,94.7499735 L52.6675714,95.2283513 L52.9082395,96.9676373 L53.0126533,97.673573 L53.0797434,98.0770788 L53.1453925,98.4307835 L53.2100931,98.7380241 L53.2743376,99.0021375 L53.3386182,99.2264607 C53.3493621,99.2607174 53.3601279,99.2934553 53.370926,99.3247438 L53.4361842,99.4956386 C53.5019939,99.6502534 53.5697044,99.7576967 53.6415312,99.832985 C53.7477738,99.9443584 53.8687432,100.050008 54.0138894,100.15456 L54.2002745,100.279791 C54.2334744,100.300674 54.2677926,100.321587 54.3033047,100.342567 L54.5313084,100.469549 L54.791594,100.599918 C54.8378667,100.622028 54.8856356,100.644352 54.9349765,100.666929 L55.2504888,100.805711 L55.6073551,100.952322 L56.009204,101.108539 L56.704258,101.364762 L57.9729607,101.814315 L58.5841378,102.037983 L59.1387337,102.250189 C60.0198533,102.596604 60.6947983,102.912424 61.3114714,103.28346 L61.6756658,103.513393 C61.9153779,103.672015 62.1504994,103.842216 62.390496,104.02949 C64.3914228,105.590849 65.4875955,107.781015 65.4875955,110.5567 C65.4875955,115.29427 63.9421387,120.49177 60.9135617,126.16879 C60.1174514,127.661086 58.2623315,128.225456 56.7700353,127.429346 C55.2777391,126.633236 54.713369,124.778116 55.5094792,123.28582 C58.0990022,118.4318 59.3625955,114.18223 59.3625955,110.5567 C59.3625955,109.57571 59.0858531,109.023423 57.9174003,108.41716 L57.5919544,108.257462 L57.2236267,108.093411 L56.809991,107.923104 L56.3486214,107.744634 L55.8370917,107.556099 L54.5035601,107.082746 C54.391026,107.04217 54.2809775,107.002138 54.1733069,106.962575 L53.5549595,106.730222 L52.9885233,106.505513 C51.2715532,105.802218 50.257782,105.159506 49.2097221,104.060832 C47.9110871,102.699614 47.406229,101.373887 46.9998454,98.8728438 L46.8998986,98.2223964 L46.6505815,96.4188147 L46.5545251,95.7690413 L46.4657784,95.2305287 L46.3776226,94.7682609 L46.3158622,94.4851486 L46.21376,94.0721415 L46.1364807,93.7894473 C45.4035585,91.1912154 43.9554916,89.4359355 40.8623087,88.0709893 C38.0511303,86.8305015 34.1069826,86.685325 29.0590329,87.7034077 L28.1828628,87.889344 C26.1132615,88.3498434 23.8673186,88.9970854 21.4469007,89.8354189 L20.398902,90.2064168 C19.5166771,90.5253524 18.6122318,90.8687411 17.685651,91.2367811 L16.6438859,91.6574265 L15.5229251,92.1234434 L14.1968887,92.6854108 L11.3868673,93.8981435 C11.2383137,93.9628055 11.0876621,94.0284518 10.9349158,94.0950811 C9.38461881,94.7713344 7.57964315,94.0627819 6.90338987,92.5124849 C6.22713659,90.9621878 6.93568905,89.1572122 8.48598608,88.4809589 L10.2493571,87.715161 L12.5162497,86.7441984 L13.7753203,86.2154393 L14.5871832,85.8811374 L14.8325727,85.7815673 Z" id="路径" fill="#778FED" fill-rule="nonzero"></path>
                    </g>
                </g>
                <path d="M137.45943,25.4419624 C152.371118,25.4419624 164.45943,37.5302741 164.45943,52.4419624 L164.45943,137.45943 C164.45943,152.371118 152.371118,164.45943 137.45943,164.45943 L52.4419624,164.45943 C37.5302741,164.45943 25.4419624,152.371118 25.4419624,137.45943 L25.4419624,52.4419624 C25.4419624,37.5302741 37.5302741,25.4419624 52.4419624,25.4419624 L137.45943,25.4419624 Z M137.45943,35.4419624 L52.4419624,35.4419624 C43.1610393,35.4419624 35.6171664,42.879158 35.4449702,52.1189227 L35.4419624,52.4419624 L35.4419624,137.45943 C35.4419624,146.740353 42.879158,154.284226 52.1189227,154.456422 L52.4419624,154.45943 L137.45943,154.45943 C146.740353,154.45943 154.284226,147.022235 154.456422,137.78247 L154.45943,137.45943 L154.45943,52.4419624 C154.45943,43.1610393 147.022235,35.6171664 137.78247,35.4449702 L137.45943,35.4419624 Z" id="矩形" fill="#FFFFFF" fill-rule="nonzero" mask="url(#mask-3)" transform="translate(94.950696, 94.950696) rotate(-330.000000) translate(-94.950696, -94.950696) "></path>
                <mask id="mask-7" fill="white">
                    <use xlink:href="#path-6"></use>
                </mask>
                <g id="路径">
                    <use fill="black" fill-opacity="1" filter="url(#filter-8)" xlink:href="#path-6"></use>
                    <use fill="#FFFFFF" fill-rule="evenodd" xlink:href="#path-6"></use>
                </g>
                <g id="保护_protect" mask="url(#mask-7)">
                    <g transform="translate(18.694755, 40.999130)" id="世界_world">
                        <path d="M59.8125,0 C26.7789542,0 0,26.7789542 0,59.8125 C0,71.4405239 3.31814266,82.29355 9.05922434,91.4763749 C13.9482958,99.2964147 24.1133855,101.620043 31.9638828,106.464715 C39.2208558,110.943113 47.4996383,116.250659 52.8664222,119.225997 C54.8727519,120.338303 57.4630402,119.625 59.8125,119.625 C92.8460458,119.625 119.625,92.8460458 119.625,59.8125 C119.625,26.7789542 92.8460458,0 59.8125,0 Z M59.8125,6.125 C89.4633017,6.125 113.5,30.1616983 113.5,59.8125 C113.5,89.4633017 89.4633017,113.5 59.8125,113.5 C30.1616983,113.5 6.125,89.4633017 6.125,59.8125 C6.125,30.1616983 30.1616983,6.125 59.8125,6.125 Z" id="路径" fill="#7991EE" fill-rule="nonzero"></path>
                        <path d="M59.8125,102.77164 C83.5381885,102.77164 102.77164,83.5381885 102.77164,59.8125 C102.77164,36.0868115 83.5381885,16.8533602 59.8125,16.8533602 C36.0868115,16.8533602 16.8533602,36.0868115 16.8533602,59.8125 C16.8533602,83.5381885 36.0868115,102.77164 59.8125,102.77164 Z" id="路径" fill="#FAFAFA"></path>
                        <path d="M6.26113378,53.0266155 C15.1887553,48.8110286 20.0607693,48.2681538 24.3389562,51.3090263 C30.7565032,55.8707793 31.5610655,74.4615884 46.1574905,65.5764603 C60.7539156,56.6913322 39.9069562,53.0709497 44.4325823,40.2000251 C48.9582085,27.3291006 63.7790937,37.3270536 65.2525947,23.228705 C66.2345338,13.8295691 57.7417895,10.0774114 34.2735619,12.2837541 C24.4819436,17.2827047 18.03453,22.5789205 14.9313214,28.1724015 C10.9999944,35.2585517 8.10993184,43.5432896 6.26113378,53.0266155 Z" id="路径" fill="url(#linearGradient-9)"></path>
                        <path d="M93.8627838,14.4125 C77.6481738,28.5676525 71.9850913,37.1156213 76.8735363,40.0558388 C84.20592,44.4664488 87.3172388,38.2568638 96.2650113,40.0558388 C105.212784,41.8550975 103.275339,53.9834238 98.5690613,53.9834238 C93.8627838,53.9834238 69.488375,50.8794825 70.7161613,65.1044375 C71.9436638,79.3291088 86.6047425,81.4351013 86.6047425,89.3823713 C86.6047425,94.6805513 83.3609125,102.789275 76.8735363,113.708543 L102.77164,100.166123 L118.795542,65.6842984 L112.43155,37.1227804 L93.8627838,14.4125 Z" id="路径" fill="url(#linearGradient-10)"></path>
                        <path d="M9.03433087,87.9597177 C11.7647304,86.7686933 13.8171806,81.3445965 15.1916516,80.7892245 C26.7157415,76.1335651 35.2667937,75.0360013 40.8441789,77.4971323 C50.7069755,81.8493441 46.9152282,90.6388407 50.0045227,93.8770133 C53.0935177,97.1151858 60.8076175,96.1730903 60.8076175,102.333107 C60.8076175,106.439984 59.428174,111.079168 56.6692869,116.250659 L9.03433087,87.9597177 Z" id="路径" fill="url(#linearGradient-11)"></path>
                    </g>
                </g>
                <path d="M76.231239,38.2569078 C69.0319722,38.3665278 62.8116819,39.5855513 57.1957829,41.8002605 C51.1731498,44.1753711 45.8456248,47.6956164 40.7511972,52.220738 C37.250617,55.3301257 35.7437694,60.3306745 33.600353,64.736363 C27.7290864,76.8044671 18.8891513,84.8849216 18.7020439,98.3832748 L18.695,99.269 L18.652413,99.7886018 L18.6234665,100.216586 C18.5770972,100.964496 18.547276,101.79874 18.5406238,102.706322 L18.5406238,103.150262 C18.564092,111.678002 21.933546,114.902982 26.8256817,120.991691 C27.2016442,121.459611 27.6326424,121.940375 28.1199345,122.435927 L28.5514292,122.864352 C28.9225456,123.224466 29.3225668,123.592409 29.7519516,123.968887 L30.2813371,124.424804 C30.3719269,124.501488 30.4636986,124.578525 30.5566558,124.65592 L31.128655,125.124639 L31.7292835,125.602231 L32.3587173,126.08897 L33.0171325,126.585128 L33.7047053,127.090975 L34.4216118,127.606784 L35.1680281,128.132827 C35.2948997,128.221369 35.4230083,128.310349 35.5523574,128.399772 L36.3433685,128.941676 L37.1643297,129.494493 L38.0154171,130.058496 L38.8968067,130.633957 L39.8086747,131.221147 L40.7511972,131.820339 L41.7245502,132.431804 L42.72891,133.055814 L43.7644526,133.692641 L45.9297906,135.005834 L47.0599383,135.682743 L49.1359363,136.913629 L51.700843,138.416739 L59.6385414,143.017193 L61.0072168,143.823117 L62.9951503,145.013421 L65.1580465,146.328405 L67.6732694,147.877342 C69.7903426,149.18866 71.9762934,150.559998 74.1470864,151.934678 L76.6896224,153.550565 L79.3259602,155.239591 L80.0840878,155.728748 L80.9863249,155.728748 C112.229925,155.728748 140.069755,133.837139 140.069755,101.064106 C140.069755,66.3723374 111.946548,38.2491297 77.2547795,38.2491297 L76.231239,38.2569078 Z M77.2547795,44.3741297 C108.563804,44.3741297 133.944755,69.7550815 133.944755,101.064106 L133.936841,101.940372 C133.425859,130.222432 108.249619,153.539703 81.1790572,154.470273 L80.388,154.49 L77.5746853,152.692905 C75.4013166,151.310296 73.1912523,149.916611 71.0266409,148.567398 L68.7811624,147.173871 L66.8730854,146.000562 L65.2053141,144.984895 L64.1465936,144.345852 L62.6415517,143.446687 L61.240174,142.621562 L52.860959,137.763511 L50.3626322,136.296659 L48.2080396,135.015479 L46.6550562,134.079567 L44.6848524,132.874037 L43.2827143,132.001452 L42.3839941,131.434672 L41.0900766,130.606799 L40.263635,130.069682 L39.0783329,129.286088 L38.3244332,128.778345 L37.599624,128.28227 L36.9039473,127.797818 L36.2374454,127.324942 L35.6001603,126.863596 C35.4963832,126.787663 35.3938252,126.712209 35.2924872,126.637232 L34.6991063,126.193094 L34.1350475,125.760369 L33.600353,125.339012 L33.0950648,124.928977 C33.013303,124.861578 32.9327682,124.79465 32.8534613,124.72819 L32.3923616,124.335049 L31.9607737,123.953114 L31.5587395,123.582339 C31.4941989,123.52147 31.4308915,123.461064 31.3688182,123.401121 L31.0111936,123.046997 C30.95406,122.988898 30.8981621,122.931259 30.8435009,122.87408 L30.5303807,122.536504 C30.3812477,122.370463 30.2432605,122.208538 30.1164429,122.050702 C26.2829345,117.279551 24.6855941,110.400226 24.6656071,103.147378 L24.6656071,102.731498 C24.6704007,102.110057 24.6877041,101.52413 24.7147106,100.988069 L24.7476705,100.425877 L24.786687,99.9197308 L24.8197555,99.6062492 L24.8197555,99.4366297 C24.8197555,86.9298285 28.1526063,75.7678593 34.0568795,66.8179744 C38.7337086,59.7286881 45.0239434,54.0273454 52.5491549,50.1449694 C59.7611029,46.424211 68.1073473,44.3741297 77.2547795,44.3741297 Z" id="路径" fill="#7991EE" fill-rule="nonzero" mask="url(#mask-7)"></path>
                <g id="椭圆形" transform="translate(106.038968, 31.748840)">
                    <use fill="black" fill-opacity="1" filter="url(#filter-14)" xlink:href="#path-13"></use>
                    <use fill="url(#linearGradient-12)" fill-rule="evenodd" xlink:href="#path-13"></use>
                </g>
                <g id="已定位_local-2" transform="translate(117.736422, 42.037522)" fill="#FFFFFF" fill-rule="nonzero">
                    <path d="M8.39583333,3.19744231e-14 C13.0327229,3.19744231e-14 16.7916667,3.66693833 16.7916667,8.19032917 C16.7916667,14.2166581 9.21442708,19.4699921 8.45670312,19.9802596 L8.40275212,20.0162823 L8.40275212,20.0162823 C8.39583333,20.0208333 -6.00408612e-13,14.5338333 -6.00408612e-13,8.19032917 C-6.00408612e-13,3.66693833 3.75894375,3.19744231e-14 8.39583333,3.19744231e-14 Z M8.39583333,5.16666667 C6.61242917,5.16666667 5.16666667,6.61242917 5.16666667,8.39583333 C5.16666667,10.1792375 6.61242917,11.625 8.39583333,11.625 C10.1792375,11.625 11.625,10.1792375 11.625,8.39583333 C11.625,6.61242917 10.1792375,5.16666667 8.39583333,5.16666667 Z" id="形状结合"></path>
                </g>
                <path d="M13.6269332,118.828882 C15.0354236,116.54588 17.982711,115.791974 20.3043865,117.079913 L20.5075616,117.198866 L104.824943,169.218178 C107.175093,170.668095 107.904876,173.748657 106.454959,176.098807 C105.046469,178.381809 102.099181,179.135715 99.7775058,177.847776 L99.5743307,177.728823 L15.2569494,125.709511 C12.9067998,124.259594 12.1770167,121.179032 13.6269332,118.828882 Z" id="路径-4" fill="#FFFFFF" fill-rule="nonzero"></path>
            </g>
        </g>
    </g>
</svg>