<?xml version="1.0" encoding="UTF-8"?>
<svg width="218px" height="219px" viewBox="0 0 218 219" version="1.1" xmlns="http://www.w3.org/2000/svg" xmlns:xlink="http://www.w3.org/1999/xlink">
    <title>编组 10</title>
    <defs>
        <linearGradient x1="50%" y1="0%" x2="50%" y2="100%" id="linearGradient-1">
            <stop stop-color="#3861CD" offset="0%"></stop>
            <stop stop-color="#1A329F" offset="100%"></stop>
        </linearGradient>
        <path d="M57.2774145,25.4419624 L142.294882,25.4419624 C157.206571,25.4419624 169.294882,37.5302741 169.294882,52.4419624 L169.294882,137.45943 C169.294882,152.371118 157.206571,164.45943 142.294882,164.45943 L57.2774145,164.45943 C42.3657263,164.45943 30.2774145,152.371118 30.2774145,137.45943 L30.2774145,52.4419624 C30.2774145,37.5302741 42.3657263,25.4419624 57.2774145,25.4419624 Z" id="path-2"></path>
        <filter x="-11.9%" y="-9.7%" width="123.7%" height="123.7%" filterUnits="objectBoundingBox" id="filter-4">
            <feOffset dx="0" dy="3" in="SourceAlpha" result="shadowOffsetOuter1"></feOffset>
            <feGaussianBlur stdDeviation="5" in="shadowOffsetOuter1" result="shadowBlurOuter1"></feGaussianBlur>
            <feColorMatrix values="0 0 0 0 0.11372549   0 0 0 0 0.211764706   0 0 0 0 0.654901961  0 0 0 0.214898383 0" type="matrix" in="shadowBlurOuter1"></feColorMatrix>
        </filter>
        <filter x="-8.8%" y="-10.2%" width="117.6%" height="120.3%" filterUnits="objectBoundingBox" id="filter-5">
            <feOffset dx="0" dy="0" in="SourceAlpha" result="shadowOffsetOuter1"></feOffset>
            <feGaussianBlur stdDeviation="3" in="shadowOffsetOuter1" result="shadowBlurOuter1"></feGaussianBlur>
            <feColorMatrix values="0 0 0 0 0.449805322   0 0 0 0 0.538096418   0 0 0 0 0.939085145  0 0 0 1 0" type="matrix" in="shadowBlurOuter1" result="shadowMatrixOuter1"></feColorMatrix>
            <feMerge>
                <feMergeNode in="shadowMatrixOuter1"></feMergeNode>
                <feMergeNode in="SourceGraphic"></feMergeNode>
            </feMerge>
        </filter>
        <linearGradient x1="70.0694203%" y1="44.1246595%" x2="25.2092065%" y2="55.6825593%" id="linearGradient-6">
            <stop stop-color="#91A9F4" offset="0%"></stop>
            <stop stop-color="#5C75E6" offset="100%"></stop>
        </linearGradient>
        <linearGradient x1="70.0694203%" y1="32.9688603%" x2="25.2092065%" y2="66.4723154%" id="linearGradient-7">
            <stop stop-color="#91A9F4" offset="0%"></stop>
            <stop stop-color="#5C75E6" offset="100%"></stop>
        </linearGradient>
        <filter id="filter-8">
            <feColorMatrix in="SourceGraphic" type="matrix" values="0 0 0 0 0.791959 0 0 0 0 0.829500 0 0 0 0 1.000000 0 0 0 1.000000 0"></feColorMatrix>
        </filter>
        <filter x="-10.6%" y="-11.6%" width="119.3%" height="121.8%" filterUnits="objectBoundingBox" id="filter-9">
            <feOffset dx="0" dy="0" in="SourceAlpha" result="shadowOffsetOuter1"></feOffset>
            <feGaussianBlur stdDeviation="3" in="shadowOffsetOuter1" result="shadowBlurOuter1"></feGaussianBlur>
            <feColorMatrix values="0 0 0 0 0.449805322   0 0 0 0 0.538096418   0 0 0 0 0.939085145  0 0 0 1 0" type="matrix" in="shadowBlurOuter1" result="shadowMatrixOuter1"></feColorMatrix>
            <feMerge>
                <feMergeNode in="shadowMatrixOuter1"></feMergeNode>
                <feMergeNode in="SourceGraphic"></feMergeNode>
            </feMerge>
        </filter>
        <linearGradient x1="70.0694203%" y1="44.053656%" x2="25.2092065%" y2="55.7512331%" id="linearGradient-10">
            <stop stop-color="#91A9F4" offset="0%"></stop>
            <stop stop-color="#5C75E6" offset="100%"></stop>
        </linearGradient>
        <linearGradient x1="70.0694203%" y1="31.8217736%" x2="25.2092065%" y2="67.581764%" id="linearGradient-11">
            <stop stop-color="#91A9F4" offset="0%"></stop>
            <stop stop-color="#5C75E6" offset="100%"></stop>
        </linearGradient>
        <path d="M6.39558937,0 L117.898947,0 C120.660371,-5.07265313e-16 122.898947,2.23857625 122.898947,5 L122.898947,72.475969 C122.898947,74.1328232 121.555802,75.475969 119.898947,75.475969 L4.39558937,75.475969 C2.73873512,75.475969 1.39558937,74.1328232 1.39558937,72.475969 L1.39558937,5 C1.39558937,2.23857625 3.63416562,-3.80913106e-16 6.39558937,0 Z" id="path-12"></path>
        <filter x="-5.8%" y="-6.6%" width="111.5%" height="118.5%" filterUnits="objectBoundingBox" id="filter-13">
            <feOffset dx="0" dy="2" in="SourceAlpha" result="shadowOffsetOuter1"></feOffset>
            <feGaussianBlur stdDeviation="2" in="shadowOffsetOuter1" result="shadowBlurOuter1"></feGaussianBlur>
            <feColorMatrix values="0 0 0 0 0.174495628   0 0 0 0 0.290692514   0 0 0 0 0.820567255  0 0 0 0.5 0" type="matrix" in="shadowBlurOuter1"></feColorMatrix>
        </filter>
        <linearGradient x1="66.8494189%" y1="40.6819823%" x2="50%" y2="64.1920116%" id="linearGradient-14">
            <stop stop-color="#FFD790" offset="0%"></stop>
            <stop stop-color="#FFAE58" offset="100%"></stop>
        </linearGradient>
        <linearGradient x1="93.284395%" y1="44.7316831%" x2="5.77483181%" y2="50%" id="linearGradient-15">
            <stop stop-color="#FFDC8A" offset="0%"></stop>
            <stop stop-color="#FFCC7C" offset="100%"></stop>
        </linearGradient>
        <linearGradient x1="70.0694203%" y1="48.8717798%" x2="25.2092065%" y2="51.0912012%" id="linearGradient-16">
            <stop stop-color="#91A9F4" offset="0%"></stop>
            <stop stop-color="#5C75E6" offset="100%"></stop>
        </linearGradient>
        <linearGradient x1="93.284395%" y1="49.7249204%" x2="5.77483181%" y2="50%" id="linearGradient-17">
            <stop stop-color="#FFDC8A" offset="0%"></stop>
            <stop stop-color="#FFCC7C" offset="100%"></stop>
        </linearGradient>
        <linearGradient x1="70.0694203%" y1="49.5896219%" x2="25.2092065%" y2="50.3969129%" id="linearGradient-18">
            <stop stop-color="#91A9F4" offset="0%"></stop>
            <stop stop-color="#5C75E6" offset="100%"></stop>
        </linearGradient>
        <linearGradient x1="93.284395%" y1="31.4391468%" x2="5.77483181%" y2="50%" id="linearGradient-19">
            <stop stop-color="#FFDC8A" offset="0%"></stop>
            <stop stop-color="#FFCC7C" offset="100%"></stop>
        </linearGradient>
        <circle id="path-20" cx="19.7813951" cy="19.7813951" r="19.7813951"></circle>
        <filter x="-17.7%" y="-12.6%" width="135.4%" height="135.4%" filterUnits="objectBoundingBox" id="filter-21">
            <feOffset dx="0" dy="2" in="SourceAlpha" result="shadowOffsetOuter1"></feOffset>
            <feGaussianBlur stdDeviation="2" in="shadowOffsetOuter1" result="shadowBlurOuter1"></feGaussianBlur>
            <feColorMatrix values="0 0 0 0 1   0 0 0 0 0.741176471   0 0 0 0 0.42745098  0 0 0 1 0" type="matrix" in="shadowBlurOuter1"></feColorMatrix>
        </filter>
        <filter id="filter-22">
            <feColorMatrix in="SourceGraphic" type="matrix" values="0 0 0 0 1.000000 0 0 0 0 1.000000 0 0 0 0 1.000000 0 0 0 1.000000 0"></feColorMatrix>
        </filter>
    </defs>
    <g id="页面-1" stroke="none" stroke-width="1" fill="none" fill-rule="evenodd">
        <g id="官网备份" transform="translate(-429.000000, -1124.000000)">
            <g id="编组-10" transform="translate(439.964911, 1135.902976)">
                <mask id="mask-3" fill="white">
                    <use xlink:href="#path-2"></use>
                </mask>
                <g id="矩形" transform="translate(99.786148, 94.950696) rotate(-330.000000) translate(-99.786148, -94.950696) ">
                    <use fill="black" fill-opacity="1" filter="url(#filter-4)" xlink:href="#path-2"></use>
                    <use fill="url(#linearGradient-1)" fill-rule="evenodd" xlink:href="#path-2"></use>
                </g>
                <g id="笔记本_laptop" mask="url(#mask-3)">
                    <g transform="translate(0.000000, 12.407031)">
                        <rect id="矩形" fill-opacity="0.01" fill="#FFFFFF" fill-rule="nonzero" x="0" y="0" width="177.592969" height="177.592969"></rect>
                        <g id="编组-6" filter="url(#filter-5)" stroke-width="1" fill="none" fill-rule="evenodd" transform="translate(26.596819, 29.598828)">
                            <path d="M1.91598763,73.5703621 L0,79.7973219 L0,79.7973219 L27.3214962,99.5936849 C27.4419782,99.6809826 27.5662967,99.7628591 27.6940806,99.8390699 L58.3776809,118.138887 L58.3776809,118.138887 L129.42694,118.138887 C132.188364,118.138887 134.42694,115.900311 134.42694,113.138887 C134.42694,112.640463 134.352414,112.144841 134.205835,111.668458 L122.483344,73.5703621 C121.837818,71.472404 119.899473,70.0407914 117.704449,70.0407914 L6.69488267,70.0407914 C4.49985839,70.0407914 2.5615132,71.472404 1.91598763,73.5703621 Z" id="路径" fill="url(#linearGradient-6)"></path>
                            <path d="M8.0020094,0 L116.397322,0 C119.158746,-5.07265313e-16 121.397322,2.23857625 121.397322,5 L121.397322,70.9970704 C121.397322,72.6539246 120.054176,73.9970704 118.397322,73.9970704 L6.0020094,73.9970704 C4.34515515,73.9970704 3.0020094,72.6539246 3.0020094,70.9970704 L3.0020094,5 C3.0020094,2.23857625 5.24058565,-1.26909153e-15 8.0020094,0 Z" id="矩形" fill="#FFFFFF" fill-rule="nonzero"></path>
                            <rect id="矩形" fill="url(#linearGradient-7)" fill-rule="nonzero" x="9.56033234" y="5.34830311" width="105.278667" height="63.3004642" rx="2"></rect>
                            <polygon id="路径" fill="#FFAE58" fill-rule="nonzero" points="47.0302663 94.9003273 77.3690651 94.9003273 84.3987868 117.099448 39.9278183 116.669771"></polygon>
                        </g>
                    </g>
                </g>
                <g filter="url(#filter-8)" id="编组-7" opacity="0.149600074">
                    <g mask="url(#mask-3)">
                        <g transform="translate(69.553283, -10.060413)" fill="#1A329F" fill-rule="nonzero">
                            <path d="M4.875,50.6195158 C6.30208333,50.6195158 7.39322917,50.0687346 8.1484375,48.9671721 C8.90364583,47.8656096 9.28125,46.3018075 9.28125,44.2757658 C9.28125,40.1611825 7.890625,38.1038908 5.109375,38.1038908 C3.65104167,38.1038908 2.53645833,38.6559742 1.765625,39.7601408 C0.994791667,40.8643075 0.609375,42.4632658 0.609375,44.5570158 C0.609375,48.5986825 2.03125,50.6195158 4.875,50.6195158 Z M4.953125,48.6820158 C3.76041667,48.6820158 3.1640625,47.2861825 3.1640625,44.4945158 C3.1640625,41.5257658 3.77604167,40.0413908 5,40.0413908 C6.140625,40.0413908 6.7109375,41.4840992 6.7109375,44.3695158 C6.7109375,47.2445158 6.125,48.6820158 4.953125,48.6820158 Z" id="0"></path>
                            <path d="M17.9639892,35.6735729 C19.3910726,35.6735729 20.4822184,35.1227916 21.2374267,34.0212291 C21.9926351,32.9196666 22.3702392,31.3558646 22.3702392,29.3298229 C22.3702392,25.2152396 20.9796142,23.1579479 18.1983642,23.1579479 C16.7400309,23.1579479 15.6254476,23.7100312 14.8546142,24.8141979 C14.0837809,25.9183646 13.6983642,27.5173229 13.6983642,29.6110729 C13.6983642,33.6527396 15.1202392,35.6735729 17.9639892,35.6735729 Z M18.0421142,33.7360729 C16.8494059,33.7360729 16.2530517,32.3402396 16.2530517,29.5485729 C16.2530517,26.5798229 16.8650309,25.0954479 18.0889892,25.0954479 C19.2296142,25.0954479 19.7999267,26.5381562 19.7999267,29.4235729 C19.7999267,32.2985729 19.2139892,33.7360729 18.0421142,33.7360729 Z" id="0"></path>
                            <path d="M31.0529785,26.4422552 C32.4800618,26.4422552 33.5712077,25.8914739 34.326416,24.7899114 C35.0816243,23.6883489 35.4592285,22.1245469 35.4592285,20.0985052 C35.4592285,15.9839219 34.0686035,13.9266302 31.2873535,13.9266302 C29.8290202,13.9266302 28.7144368,14.4787135 27.9436035,15.5828802 C27.1727702,16.6870469 26.7873535,18.2860052 26.7873535,20.3797552 C26.7873535,24.4214219 28.2092285,26.4422552 31.0529785,26.4422552 Z M31.1311035,24.5047552 C29.9383952,24.5047552 29.342041,23.1089219 29.342041,20.3172552 C29.342041,17.3485052 29.9540202,15.8641302 31.1779785,15.8641302 C32.3186035,15.8641302 32.888916,17.3068385 32.888916,20.1922552 C32.888916,23.0672552 32.3029785,24.5047552 31.1311035,24.5047552 Z" id="0"></path>
                            <path d="M17.9639892,54.1362083 C19.3910726,54.1362083 20.4822184,53.585427 21.2374267,52.4838645 C21.9926351,51.382302 22.3702392,49.8184999 22.3702392,47.7924583 C22.3702392,43.6778749 20.9796142,41.6205833 18.1983642,41.6205833 C16.7400309,41.6205833 15.6254476,42.1726666 14.8546142,43.2768333 C14.0837809,44.3809999 13.6983642,45.9799583 13.6983642,48.0737083 C13.6983642,52.1153749 15.1202392,54.1362083 17.9639892,54.1362083 Z M18.0421142,52.1987083 C16.8494059,52.1987083 16.2530517,50.8028749 16.2530517,48.0112083 C16.2530517,45.0424583 16.8650309,43.5580833 18.0889892,43.5580833 C19.2296142,43.5580833 19.7999267,45.0007916 19.7999267,47.8862083 C19.7999267,50.7612083 19.2139892,52.1987083 18.0421142,52.1987083 Z" id="0"></path>
                            <path d="M44.3391827,54.1362083 C45.766266,54.1362083 46.8574118,53.585427 47.6126202,52.4838645 C48.3678285,51.382302 48.7454327,49.8184999 48.7454327,47.7924583 C48.7454327,43.6778749 47.3548077,41.6205833 44.5735577,41.6205833 C43.1152243,41.6205833 42.000641,42.1726666 41.2298077,43.2768333 C40.4589743,44.3809999 40.0735577,45.9799583 40.0735577,48.0737083 C40.0735577,52.1153749 41.4954327,54.1362083 44.3391827,54.1362083 Z M44.4173077,52.1987083 C43.2245993,52.1987083 42.6282452,50.8028749 42.6282452,48.0112083 C42.6282452,45.0424583 43.2402243,43.5580833 44.4641827,43.5580833 C45.6048077,43.5580833 46.1751202,45.0007916 46.1751202,47.8862083 C46.1751202,50.7612083 45.5891827,52.1987083 44.4173077,52.1987083 Z" id="0"></path>
                            <path d="M84.7811459,74.7967764 C86.2082292,74.7967764 87.299375,74.2459952 88.0545834,73.1444327 C88.8097917,72.0428702 89.1873959,70.4790681 89.1873959,68.4530264 C89.1873959,64.3384431 87.7967709,62.2811514 85.0155209,62.2811514 C83.5571875,62.2811514 82.4426042,62.8332348 81.6717709,63.9374014 C80.9009375,65.0415681 80.5155209,66.6405264 80.5155209,68.7342764 C80.5155209,72.7759431 81.9373959,74.7967764 84.7811459,74.7967764 Z M84.8592709,72.8592764 C83.6665625,72.8592764 83.0702084,71.4634431 83.0702084,68.6717764 C83.0702084,65.7030264 83.6821875,64.2186514 84.9061459,64.2186514 C86.0467709,64.2186514 86.6170834,65.6613598 86.6170834,68.5467764 C86.6170834,71.4217764 86.0311459,72.8592764 84.8592709,72.8592764 Z" id="0"></path>
                            <path d="M97.4757053,85.0058747 C98.9027886,85.0058747 99.9939344,84.4550935 100.749143,83.353531 C101.504351,82.2519685 101.881955,80.6881664 101.881955,78.6621247 C101.881955,74.5475414 100.49133,72.4902497 97.7100803,72.4902497 C96.2517469,72.4902497 95.1371636,73.042333 94.3663303,74.1464997 C93.5954969,75.2506664 93.2100803,76.8496247 93.2100803,78.9433747 C93.2100803,82.9850414 94.6319553,85.0058747 97.4757053,85.0058747 Z M97.5538303,83.0683747 C96.3611219,83.0683747 95.7647678,81.6725414 95.7647678,78.8808747 C95.7647678,75.9121247 96.3767469,74.4277497 97.6007053,74.4277497 C98.7413303,74.4277497 99.3116428,75.870458 99.3116428,78.7558747 C99.3116428,81.6308747 98.7257053,83.0683747 97.5538303,83.0683747 Z" id="0"></path>
                            <path d="M84.7811459,111.722047 C86.2082292,111.722047 87.299375,111.171266 88.0545834,110.069703 C88.8097917,108.968141 89.1873959,107.404339 89.1873959,105.378297 C89.1873959,101.263714 87.7967709,99.2064222 85.0155209,99.2064222 C83.5571875,99.2064222 82.4426042,99.7585055 81.6717709,100.862672 C80.9009375,101.966839 80.5155209,103.565797 80.5155209,105.659547 C80.5155209,109.701214 81.9373959,111.722047 84.7811459,111.722047 Z M84.8592709,109.784547 C83.6665625,109.784547 83.0702084,108.388714 83.0702084,105.597047 C83.0702084,102.628297 83.6821875,101.143922 84.9061459,101.143922 C86.0467709,101.143922 86.6170834,102.586631 86.6170834,105.472047 C86.6170834,108.347047 86.0311459,109.784547 84.8592709,109.784547 Z" id="0"></path>
                            <path d="M84.7811459,130.184683 C86.2082292,130.184683 87.299375,129.633901 88.0545834,128.532339 C88.8097917,127.430776 89.1873959,125.866974 89.1873959,123.840933 C89.1873959,119.726349 87.7967709,117.669058 85.0155209,117.669058 C83.5571875,117.669058 82.4426042,118.221141 81.6717709,119.325308 C80.9009375,120.429474 80.5155209,122.028433 80.5155209,124.122183 C80.5155209,128.163849 81.9373959,130.184683 84.7811459,130.184683 Z M84.8592709,128.247183 C83.6665625,128.247183 83.0702084,126.851349 83.0702084,124.059683 C83.0702084,121.090933 83.6821875,119.606558 84.9061459,119.606558 C86.0467709,119.606558 86.6170834,121.049266 86.6170834,123.934683 C86.6170834,126.809683 86.0311459,128.247183 84.8592709,128.247183 Z" id="0"></path>
                            <path d="M6.7890625,33.8028966 L6.7890625,21.4357091 L5.1796875,21.4357091 C4.13802083,22.2273758 2.90364583,22.8315425 1.4765625,23.2482091 L1.4765625,23.2482091 L1.4765625,25.4122716 C1.9296875,25.3601883 2.42708333,25.2260737 2.96875,25.0099279 C3.51041667,24.793782 3.9375,24.5502925 4.25,24.2794591 L4.25,24.2794591 L4.25,33.8028966 L6.7890625,33.8028966 Z" id="1"></path>
                            <path d="M19.8780517,17 L19.8780517,4.6328125 L18.2686767,4.6328125 C17.2270101,5.42447917 15.9926351,6.02864583 14.5655517,6.4453125 L14.5655517,6.4453125 L14.5655517,8.609375 C15.0186767,8.55729167 15.5160726,8.42317708 16.0577392,8.20703125 C16.5994059,7.99088542 17.0264892,7.74739583 17.3389892,7.4765625 L17.3389892,7.4765625 L17.3389892,17 L19.8780517,17 Z" id="1"></path>
                            <path d="M33.1642559,44.6939531 L33.1642559,32.3267656 L31.5548809,32.3267656 C30.5132142,33.1184322 29.2788392,33.7225989 27.8517559,34.1392656 L27.8517559,34.1392656 L27.8517559,36.3033281 C28.3048809,36.2512447 28.8022767,36.1171302 29.3439434,35.9009843 C29.8856101,35.6848385 30.3126934,35.4413489 30.6251934,35.1705156 L30.6251934,35.1705156 L30.6251934,44.6939531 L33.1642559,44.6939531 Z" id="1"></path>
                            <path d="M86.6952084,93.0484743 L86.6952084,80.6812868 L85.0858334,80.6812868 C84.0441667,81.4729535 82.8097917,82.0771202 81.3827084,82.4937868 L81.3827084,82.4937868 L81.3827084,84.6578493 C81.8358334,84.605766 82.3332292,84.4716514 82.8748959,84.2555056 C83.4165625,84.0393597 83.8436459,83.7958702 84.1561459,83.5250368 L84.1561459,83.5250368 L84.1561459,93.0484743 L86.6952084,93.0484743 Z" id="1"></path>
                            <path d="M46.0560302,37.3195891 L46.0560302,24.9524016 L44.4466552,24.9524016 C43.4049886,25.7440682 42.1706136,26.3482349 40.7435302,26.7649016 L40.7435302,26.7649016 L40.7435302,28.9289641 C41.1966552,28.8768807 41.6940511,28.7427662 42.2357177,28.5266203 C42.7773844,28.3104745 43.2044677,28.0669849 43.5169677,27.7961516 L43.5169677,27.7961516 L43.5169677,37.3195891 L46.0560302,37.3195891 Z" id="1"></path>
                            <path d="M58.9478046,53.5842917 L58.9478046,41.2171042 L57.3384296,41.2171042 C56.2967629,42.0087708 55.0623879,42.6129375 53.6353046,43.0296042 L53.6353046,43.0296042 L53.6353046,45.1936667 C54.0884296,45.1415833 54.5858254,45.0074688 55.1274921,44.7913229 C55.6691587,44.5751771 56.0962421,44.3316875 56.4087421,44.0608542 L56.4087421,44.0608542 L56.4087421,53.5842917 L58.9478046,53.5842917 Z" id="1"></path>
                            <path d="M99.3897678,69.8489943 L99.3897678,57.4818068 L97.7803928,57.4818068 C96.7387261,58.2734734 95.5043511,58.8776401 94.0772678,59.2943068 L94.0772678,59.2943068 L94.0772678,61.4583693 C94.5303928,61.4062859 95.0277886,61.2721714 95.5694553,61.0560255 C96.1111219,60.8398797 96.5382053,60.5963901 96.8507053,60.3255568 L96.8507053,60.3255568 L96.8507053,69.8489943 L99.3897678,69.8489943 Z" id="1"></path>
                            <path d="M99.3897678,103.257573 L99.3897678,90.8903851 L97.7803928,90.8903851 C96.7387261,91.6820518 95.5043511,92.2862184 94.0772678,92.7028851 L94.0772678,92.7028851 L94.0772678,94.8669476 C94.5303928,94.8148643 95.0277886,94.6807497 95.5694553,94.4646038 C96.1111219,94.248458 96.5382053,94.0049684 96.8507053,93.7341351 L96.8507053,93.7341351 L96.8507053,103.257573 L99.3897678,103.257573 Z" id="1"></path>
                            <path d="M99.3897678,123.577162 L99.3897678,111.209974 L97.7803928,111.209974 C96.7387261,112.001641 95.5043511,112.605808 94.0772678,113.022474 L94.0772678,113.022474 L94.0772678,115.186537 C94.5303928,115.134453 95.0277886,115.000339 95.5694553,114.784193 C96.1111219,114.568047 96.5382053,114.324558 96.8507053,114.053724 L96.8507053,114.053724 L96.8507053,123.577162 L99.3897678,123.577162 Z" id="1"></path>
                            <path d="M33.1642559,62.8156094 L33.1642559,50.4484219 L31.5548809,50.4484219 C30.5132142,51.2400885 29.2788392,51.8442552 27.8517559,52.2609219 L27.8517559,52.2609219 L27.8517559,54.4249844 C28.3048809,54.372901 28.8022767,54.2387865 29.3439434,54.0226406 C29.8856101,53.8064948 30.3126934,53.5630052 30.6251934,53.2921719 L30.6251934,53.2921719 L30.6251934,62.8156094 L33.1642559,62.8156094 Z" id="1"></path>
                        </g>
                    </g>
                </g>
                <path d="M142.294882,25.4419624 C157.206571,25.4419624 169.294882,37.5302741 169.294882,52.4419624 L169.294882,137.45943 C169.294882,152.371118 157.206571,164.45943 142.294882,164.45943 L57.2774145,164.45943 C42.3657263,164.45943 30.2774145,152.371118 30.2774145,137.45943 L30.2774145,52.4419624 C30.2774145,37.5302741 42.3657263,25.4419624 57.2774145,25.4419624 L142.294882,25.4419624 Z M142.294882,35.4419624 L57.2774145,35.4419624 C47.9964915,35.4419624 40.4526186,42.879158 40.2804224,52.1189227 L40.2774145,52.4419624 L40.2774145,137.45943 C40.2774145,146.740353 47.7146102,154.284226 56.9543748,154.456422 L57.2774145,154.45943 L142.294882,154.45943 C151.575805,154.45943 159.119678,147.022235 159.291874,137.78247 L159.294882,137.45943 L159.294882,52.4419624 C159.294882,43.1610393 151.857687,35.6171664 142.617922,35.4449702 L142.294882,35.4419624 Z" id="矩形" fill="#FFFFFF" fill-rule="nonzero" mask="url(#mask-3)" transform="translate(99.786148, 94.950696) rotate(-330.000000) translate(-99.786148, -94.950696) "></path>
                <g id="笔记本_laptop备份" transform="translate(0.000000, 12.407031)">
                    <rect id="矩形" fill-opacity="0.01" fill="#FFFFFF" fill-rule="nonzero" x="0" y="0" width="177.592969" height="177.592969"></rect>
                    <g id="编组-6" filter="url(#filter-9)" transform="translate(28.206688, 27.365928)">
                        <path d="M0.693335547,75.6102 L0,79.7268282 L0,79.7268282 L65.7711148,120.5 L131.304833,120.5 C134.066257,120.5 136.304833,118.261424 136.304833,115.5 C136.304833,114.998684 136.22944,114.500218 136.081184,114.021326 L123.989088,74.9619462 C123.340885,72.8681501 121.404574,71.4406202 119.212737,71.4406202 L5.62389356,71.4406202 C3.18292761,71.4406202 1.09874102,73.2031351 0.693335547,75.6102 Z" id="路径" fill="url(#linearGradient-10)"></path>
                        <g id="矩形" fill-rule="nonzero">
                            <use fill="black" fill-opacity="1" filter="url(#filter-13)" xlink:href="#path-12"></use>
                            <use fill="url(#linearGradient-11)" xlink:href="#path-12"></use>
                        </g>
                        <rect id="矩形" fill="#FFFFFF" fill-rule="nonzero" x="8.12607762" y="5.4551938" width="108.042381" height="64.5655814" rx="2"></rect>
                        <rect id="矩形" fill="#FAFAFA" fill-rule="nonzero" x="14.7150259" y="12.1807752" width="94.864485" height="51.1144186" rx="2"></rect>
                        <polygon id="路径" stroke="url(#linearGradient-15)" stroke-width="2.75" fill="url(#linearGradient-14)" fill-rule="nonzero" stroke-linecap="round" stroke-linejoin="round" points="46.5796506 96.7969965 77.7148861 96.7969965 84.929148 119.439787 65.6603735 119.254749 42.4287521 105.865845"></polygon>
                    </g>
                </g>
                <rect id="矩形" fill="url(#linearGradient-16)" x="50.885705" y="63.3004642" width="39.7677332" height="6.1542118" rx="1"></rect>
                <rect id="矩形备份-5" fill="url(#linearGradient-17)" x="50.885705" y="76.9276474" width="50.552454" height="6.1542118" rx="1"></rect>
                <rect id="矩形备份-6" fill="url(#linearGradient-18)" x="50.885705" y="90.5548307" width="65.9379835" height="6.1542118" rx="1"></rect>
                <g id="编组-9" transform="translate(110.874420, 31.748840)">
                    <g id="椭圆形">
                        <use fill="black" fill-opacity="1" filter="url(#filter-21)" xlink:href="#path-20"></use>
                        <use fill="url(#linearGradient-19)" fill-rule="evenodd" xlink:href="#path-20"></use>
                    </g>
                    <g filter="url(#filter-22)" id="编组-8">
                        <g transform="translate(6.541960, 5.839739)">
                            <rect id="矩形" fill-opacity="0.01" fill="#FFFFFF" fill-rule="nonzero" x="0" y="0" width="28.7729383" height="28.7729383"></rect>
                            <path d="M22.1791399,13.1876566 L20.3808313,14.9859653 L13.7870329,8.39216694 L15.5853416,6.5938583 C16.4844959,5.69465602 19.7813951,4.19608347 22.1791399,6.5938583 C24.5768848,8.99160315 23.0782942,12.2884424 22.1791399,13.1876566 Z" id="路径" stroke="#333333" stroke-width="2.75" fill="#333333" fill-rule="nonzero" stroke-linecap="round" stroke-linejoin="round"></path>
                            <line x1="25.176321" y1="3.59661728" x2="22.1791399" y2="6.59379835" id="路径" stroke="#333333" stroke-width="2.75" stroke-linecap="round" stroke-linejoin="round"></line>
                            <path d="M6.59379835,15.5852816 L8.39210699,13.786973 L14.9859053,20.3807713 L13.1875967,22.17908 C12.2884424,23.0782942 8.99154321,24.5768848 6.59379835,22.17908 C4.1960535,19.7813351 5.69464403,16.4844959 6.59379835,15.5852816 Z" id="路径" stroke="#333333" stroke-width="2.75" fill="#333333" fill-rule="nonzero" stroke-linecap="round" stroke-linejoin="round"></path>
                            <line x1="13.7870329" y1="19.1819588" x2="16.1847778" y2="16.784214" id="路径" stroke="#333333" stroke-width="2.75" stroke-linecap="round" stroke-linejoin="round"></line>
                            <line x1="3.59661728" y1="25.176321" x2="6.59379835" y2="22.1791399" id="路径" stroke="#333333" stroke-width="2.75" stroke-linecap="round" stroke-linejoin="round"></line>
                            <line x1="9.59097942" y1="14.9859053" x2="11.9887243" y2="12.5881605" id="路径" stroke="#333333" stroke-width="2.75" stroke-linecap="round" stroke-linejoin="round"></line>
                        </g>
                    </g>
                </g>
            </g>
        </g>
    </g>
</svg>