<?xml version="1.0" encoding="UTF-8"?>
<svg width="218px" height="219px" viewBox="0 0 218 219" version="1.1" xmlns="http://www.w3.org/2000/svg" xmlns:xlink="http://www.w3.org/1999/xlink">
    <title>编组 12</title>
    <defs>
        <linearGradient x1="50%" y1="0%" x2="50%" y2="100%" id="linearGradient-1">
            <stop stop-color="#3861CD" offset="0%"></stop>
            <stop stop-color="#1A329F" offset="100%"></stop>
        </linearGradient>
        <path d="M52.4419624,25.4419624 L137.45943,25.4419624 C152.371118,25.4419624 164.45943,37.5302741 164.45943,52.4419624 L164.45943,137.45943 C164.45943,152.371118 152.371118,164.45943 137.45943,164.45943 L52.4419624,164.45943 C37.5302741,164.45943 25.4419624,152.371118 25.4419624,137.45943 L25.4419624,52.4419624 C25.4419624,37.5302741 37.5302741,25.4419624 52.4419624,25.4419624 Z" id="path-2"></path>
        <filter x="-11.9%" y="-9.7%" width="123.7%" height="123.7%" filterUnits="objectBoundingBox" id="filter-4">
            <feOffset dx="0" dy="3" in="SourceAlpha" result="shadowOffsetOuter1"></feOffset>
            <feGaussianBlur stdDeviation="5" in="shadowOffsetOuter1" result="shadowBlurOuter1"></feGaussianBlur>
            <feColorMatrix values="0 0 0 0 0.11372549   0 0 0 0 0.211764706   0 0 0 0 0.654901961  0 0 0 0.214898383 0" type="matrix" in="shadowBlurOuter1"></feColorMatrix>
        </filter>
        <filter id="filter-5">
            <feColorMatrix in="SourceGraphic" type="matrix" values="0 0 0 0 0.791959 0 0 0 0 0.829500 0 0 0 0 1.000000 0 0 0 1.000000 0"></feColorMatrix>
        </filter>
        <path d="M52.4419624,25.4419624 L137.45943,25.4419624 C152.371118,25.4419624 164.45943,37.5302741 164.45943,52.4419624 L164.45943,137.45943 C164.45943,152.371118 152.371118,164.45943 137.45943,164.45943 L52.4419624,164.45943 C37.5302741,164.45943 25.4419624,152.371118 25.4419624,137.45943 L25.4419624,52.4419624 C25.4419624,37.5302741 37.5302741,25.4419624 52.4419624,25.4419624 Z" id="path-6"></path>
        <filter x="-11.9%" y="-9.7%" width="123.7%" height="123.7%" filterUnits="objectBoundingBox" id="filter-8">
            <feOffset dx="0" dy="3" in="SourceAlpha" result="shadowOffsetOuter1"></feOffset>
            <feMorphology radius="10" operator="erode" in="SourceAlpha" result="shadowInner"></feMorphology>
            <feOffset dx="0" dy="3" in="shadowInner" result="shadowInner"></feOffset>
            <feComposite in="shadowOffsetOuter1" in2="shadowInner" operator="out" result="shadowOffsetOuter1"></feComposite>
            <feGaussianBlur stdDeviation="5" in="shadowOffsetOuter1" result="shadowBlurOuter1"></feGaussianBlur>
            <feColorMatrix values="0 0 0 0 0.11372549   0 0 0 0 0.211764706   0 0 0 0 0.654901961  0 0 0 0.214898383 0" type="matrix" in="shadowBlurOuter1"></feColorMatrix>
        </filter>
        <path d="M34.3423079,42.2783547 C44.8278527,42.2783547 72.13231,42.2783547 75.4285714,42.2783547 C77.6260791,42.2783547 96.3364275,42.2783547 131.559617,42.2783547 L132.311561,104.259044 L132.513005,148.895215 C132.5479,156.627123 126.308238,162.92336 118.57633,162.958255 C118.555269,162.95835 118.534209,162.958397 118.513148,162.958397 L93.6911209,162.958397 L93.6911209,162.958397 L29.2534327,126.264357 C26.2085203,125.106598 23.7172494,122.423587 21.7796201,118.215324 C19.8419909,114.007061 18.8710565,108.808078 18.866817,102.618376 L18.866817,56.167766 C21.205169,46.9081585 26.363666,42.2783547 34.3423079,42.2783547 Z" id="path-9"></path>
        <linearGradient x1="70.0694203%" y1="47.6150696%" x2="25.2092065%" y2="52.3066763%" id="linearGradient-11">
            <stop stop-color="#91A9F4" offset="0%"></stop>
            <stop stop-color="#5C75E6" offset="100%"></stop>
        </linearGradient>
        <linearGradient x1="67.4880577%" y1="2.89026356%" x2="28.39784%" y2="95.5639758%" id="linearGradient-12">
            <stop stop-color="#91A9F4" offset="0%"></stop>
            <stop stop-color="#5C75E6" offset="100%"></stop>
        </linearGradient>
        <linearGradient x1="70.0694203%" y1="2.89026356%" x2="25.2092065%" y2="95.5639758%" id="linearGradient-13">
            <stop stop-color="#91A9F4" offset="0%"></stop>
            <stop stop-color="#5C75E6" offset="100%"></stop>
        </linearGradient>
        <linearGradient x1="93.284395%" y1="31.4391468%" x2="5.77483181%" y2="50%" id="linearGradient-14">
            <stop stop-color="#FFDC8A" offset="0%"></stop>
            <stop stop-color="#FFCC7C" offset="100%"></stop>
        </linearGradient>
        <circle id="path-15" cx="19.7813951" cy="19.7813951" r="19.7813951"></circle>
        <filter x="-17.7%" y="-12.6%" width="135.4%" height="135.4%" filterUnits="objectBoundingBox" id="filter-16">
            <feOffset dx="0" dy="2" in="SourceAlpha" result="shadowOffsetOuter1"></feOffset>
            <feGaussianBlur stdDeviation="2" in="shadowOffsetOuter1" result="shadowBlurOuter1"></feGaussianBlur>
            <feColorMatrix values="0 0 0 0 1   0 0 0 0 0.741176471   0 0 0 0 0.42745098  0 0 0 1 0" type="matrix" in="shadowBlurOuter1"></feColorMatrix>
        </filter>
        <filter id="filter-17">
            <feColorMatrix in="SourceGraphic" type="matrix" values="0 0 0 0 1.000000 0 0 0 0 1.000000 0 0 0 0 1.000000 0 0 0 1.000000 0"></feColorMatrix>
        </filter>
    </defs>
    <g id="页面-1" stroke="none" stroke-width="1" fill="none" fill-rule="evenodd">
        <g id="官网" transform="translate(-840.000000, -1437.000000)">
            <g id="编组-12" transform="translate(855.853603, 1448.902976)">
                <mask id="mask-3" fill="white">
                    <use xlink:href="#path-2"></use>
                </mask>
                <g id="矩形" transform="translate(94.950696, 94.950696) rotate(-330.000000) translate(-94.950696, -94.950696) ">
                    <use fill="black" fill-opacity="1" filter="url(#filter-4)" xlink:href="#path-2"></use>
                    <use fill="url(#linearGradient-1)" fill-rule="evenodd" xlink:href="#path-2"></use>
                </g>
                <g filter="url(#filter-5)" font-family="MicrosoftYaqiHei-Bold, Microsoft YaqiHei" font-size="16" font-weight="bold" id="编组-7" opacity="0.149600074">
                    <g mask="url(#mask-3)">
                        <g transform="translate(64.717831, -10.115969)">
                            <text id="0">
                                <tspan x="0" y="50.4641339" fill="#1A329F">0</tspan>
                            </text>
                            <text id="0备份">
                                <tspan x="13.0889892" y="35.5181909" fill="#1A329F">0</tspan>
                            </text>
                            <text id="0备份-3">
                                <tspan x="26.1779785" y="26.2868732" fill="#1A329F">0</tspan>
                            </text>
                            <text id="0备份-2">
                                <tspan x="13.0889892" y="53.9808263" fill="#1A329F">0</tspan>
                            </text>
                            <text id="0备份-4">
                                <tspan x="39.4641827" y="53.9808263" fill="#1A329F">0</tspan>
                            </text>
                            <text id="0备份-5">
                                <tspan x="79.9061459" y="74.6413945" fill="#1A329F">0</tspan>
                            </text>
                            <text id="0备份-7">
                                <tspan x="92.6007053" y="84.8504928" fill="#1A329F">0</tspan>
                            </text>
                            <text id="0备份-6">
                                <tspan x="79.9061459" y="111.566665" fill="#1A329F">0</tspan>
                            </text>
                            <text id="0备份-8">
                                <tspan x="79.9061459" y="130.029301" fill="#1A329F">0</tspan>
                            </text>
                            <text id="1">
                                <tspan x="0" y="33.8584522" fill="#1A329F">1</tspan>
                            </text>
                            <text id="1备份">
                                <tspan x="13.0889892" y="17.0555556" fill="#1A329F">1</tspan>
                            </text>
                            <text id="1备份-2">
                                <tspan x="26.3751934" y="44.7495086" fill="#1A329F">1</tspan>
                            </text>
                            <text id="1备份-7">
                                <tspan x="79.9061459" y="93.1040299" fill="#1A329F">1</tspan>
                            </text>
                            <text id="1备份-4">
                                <tspan x="39.2669677" y="37.3751446" fill="#1A329F">1</tspan>
                            </text>
                            <text id="1备份-5">
                                <tspan x="52.1587421" y="53.6398472" fill="#1A329F">1</tspan>
                            </text>
                            <text id="1备份-6">
                                <tspan x="92.6007053" y="69.9045498" fill="#1A329F">1</tspan>
                            </text>
                            <text id="1备份-8">
                                <tspan x="92.6007053" y="103.313128" fill="#1A329F">1</tspan>
                            </text>
                            <text id="1备份-9">
                                <tspan x="92.6007053" y="123.632717" fill="#1A329F">1</tspan>
                            </text>
                            <text id="1备份-3">
                                <tspan x="26.3751934" y="62.8711649" fill="#1A329F">1</tspan>
                            </text>
                        </g>
                    </g>
                </g>
                <mask id="mask-7" fill="white">
                    <use xlink:href="#path-6"></use>
                </mask>
                <g id="矩形" transform="translate(94.950696, 94.950696) rotate(-330.000000) translate(-94.950696, -94.950696) ">
                    <use fill="black" fill-opacity="1" filter="url(#filter-8)" xlink:href="#path-6"></use>
                    <path stroke="#FFFFFF" stroke-width="10" d="M137.45943,30.4419624 C143.534562,30.4419624 149.034562,32.9043963 153.015779,36.8856132 C156.996996,40.8668301 159.45943,46.3668301 159.45943,52.4419624 L159.45943,52.4419624 L159.45943,137.45943 C159.45943,143.534562 156.996996,149.034562 153.015779,153.015779 C149.034562,156.996996 143.534562,159.45943 137.45943,159.45943 L137.45943,159.45943 L52.4419624,159.45943 C46.3668301,159.45943 40.8668301,156.996996 36.8856132,153.015779 C32.9043963,149.034562 30.4419624,143.534562 30.4419624,137.45943 L30.4419624,137.45943 L30.4419624,52.4419624 C30.4419624,46.3668301 32.9043963,40.8668301 36.8856132,36.8856132 C40.8668301,32.9043963 46.3668301,30.4419624 52.4419624,30.4419624 L52.4419624,30.4419624 Z" stroke-linejoin="square"></path>
                </g>
                <mask id="mask-10" fill="white">
                    <use xlink:href="#path-9"></use>
                </mask>
                <use id="矩形" fill="#6C85EB" xlink:href="#path-9"></use>
                <g id="保护_protect" mask="url(#mask-10)">
                    <g transform="translate(3.918367, 32.748840)">
                        <rect id="矩形" stroke="none" fill-opacity="0.01" fill="#FFFFFF" fill-rule="nonzero" x="0" y="0" width="143.020408" height="143.020408"></rect>
                        <polygon id="路径" stroke="none" fill-opacity="0.01" fill="#FFFFFF" fill-rule="nonzero" points="143.020408 2.97959184 1.27897692e-13 2.97959184 1.27897692e-13 146 143.020408 146"></polygon>
                        <path d="M17.877551,12.2346816 L71.5358286,12.2346816 L111.142857,12.2346816 C118.874844,12.2346816 125.142857,18.5026951 125.142857,26.2346816 L125.142857,68.8380091 L125.142857,68.8380091 C125.142857,79.1340957 124.381978,98.1248114 122.860221,125.810156 C100.026829,127.064101 82.2707247,127.691074 69.5919084,127.691074 C37.5598064,117.021155 17.877551,102.58576 17.877551,68.8231112 L17.877551,12.2346816 Z" id="路径" stroke="none" fill="#FFFFFF" fill-rule="evenodd"></path>
                        <polygon id="路径" stroke="none" fill="#FAFAFA" fill-rule="evenodd" points="31.2521997 28.2485919 111.768577 28.2485919 111.781616 111.677163 31.2521997 111.677163"></polygon>
                        <rect id="矩形" stroke="none" fill="url(#linearGradient-11)" fill-rule="evenodd" x="67.3116883" y="48.9271731" width="37.9220779" height="8.53246753" rx="4.26623377"></rect>
                        <rect id="矩形备份-9" stroke="none" fill="url(#linearGradient-11)" fill-rule="evenodd" x="67.3116883" y="78.6205937" width="37.9220779" height="8.53246753" rx="4.26623377"></rect>
                        <path d="M31.877551,11.9183673 L71.5358286,11.9183673 L111.142857,11.9183673 C118.874844,11.9183673 125.142857,18.1863808 125.142857,25.9183673 L125.142857,68.8380091 L125.142857,68.8380091 C125.142857,77.9651944 125.326817,93.1746802 125.694737,114.466466 C125.818785,121.645098 120.099913,127.565087 112.921282,127.689133 C112.846421,127.690427 112.77155,127.691074 112.696677,127.691074 L72.1877489,127.691074 C71.6650941,127.691076 71.1428494,127.661808 70.6234674,127.60341 C47.8108256,125.038392 33.6832484,121.13871 28.240736,115.904366 C16.9938458,105.087652 17.877551,81.4586443 17.877551,68.8231112 L17.877551,25.9183673 C17.877551,18.1863808 24.1455645,11.9183673 31.877551,11.9183673 Z" id="路径" stroke="url(#linearGradient-12)" stroke-width="11" fill="none" stroke-linejoin="round"></path>
                        <polyline id="路径" stroke="#FFD887" stroke-width="7.75" fill="none" stroke-linecap="round" stroke-linejoin="round" points="40.6195114 51.5767701 46.7028448 57.6601035 57.1314162 47.231532"></polyline>
                        <circle id="椭圆形" stroke="url(#linearGradient-13)" stroke-width="6.75" fill="none" cx="47.6508967" cy="83.3608534" r="7.05357143"></circle>
                    </g>
                </g>
                <g id="编组-9" transform="translate(106.038968, 31.748840)">
                    <g id="椭圆形">
                        <use fill="black" fill-opacity="1" filter="url(#filter-16)" xlink:href="#path-15"></use>
                        <use fill="url(#linearGradient-14)" fill-rule="evenodd" xlink:href="#path-15"></use>
                    </g>
                    <g filter="url(#filter-17)" id="xuqiu">
                        <g transform="translate(8.507531, 5.781395)">
                            <path d="M11.2686971,0 C5.05822931,0 0.00522342231,4.68274253 0.00522342231,10.4420491 C-0.0694515416,12.6294033 0.658629356,14.7700856 2.05567347,16.4533837 C2.52550345,16.9356595 3.01089072,17.3619291 3.46827487,17.7695299 C4.95555124,19.0918991 6.37437555,20.7223025 6.8753201,23.2768085 C6.91576904,23.5008334 7.10867936,23.6626292 7.33581571,23.6688521 L15.2171359,23.6688521 C15.4442722,23.6657406 15.6371825,23.5008334 15.6776315,23.2768085 C16.14435,21.1019002 17.3484838,19.1541282 19.0846767,17.763307 C19.5513952,17.3557062 20.0274481,16.9294366 20.4754979,16.468941 C21.9285482,14.8572064 22.5477281,13.0556729 22.5477281,10.4389377 C22.5446167,4.68274253 17.479165,0 11.2686971,0 Z M17.4573848,11.2136904 L12.8306485,15.3643738 C12.752862,15.4328259 12.7093017,15.5323925 12.7124131,15.638182 L12.7124131,21.1734637 C12.7093017,21.406823 12.5195028,21.5966218 12.2861435,21.5997333 L10.2605851,21.5997333 C10.0272259,21.5966218 9.84053846,21.406823 9.84053846,21.1734637 L9.84053846,15.6412935 C9.84053846,15.5355039 9.7938666,15.4359373 9.71608018,15.3674853 L5.08623242,11.2074675 C4.82175859,10.9741082 4.66618575,10.6411824 4.66618575,10.2864763 C4.66618575,9.93488165 4.82175859,9.59884432 5.09245534,9.37170797 C5.36937499,9.12279142 5.73030399,8.98588732 6.10367881,8.99211023 C6.47705363,8.98899878 6.83798262,9.12590288 7.12112519,9.37170797 L10.920214,12.7787532 C11.1224587,12.9623291 11.4273814,12.9623291 11.6296261,12.7787532 L15.4287149,9.37170797 C15.708746,9.12279142 16.069675,8.98899878 16.4461613,8.99211023 C16.8288705,8.98899878 17.1991339,9.12590288 17.4916108,9.37170797 C17.588066,9.44327147 17.6720753,9.53039227 17.7405273,9.62995888 C18.0952334,10.1464607 17.9707752,10.8527614 17.4573848,11.2136904 Z M14.9433277,25.187243 L7.62206974,25.187243 C7.3078126,25.187243 7.0557846,25.4423825 7.0557846,25.7535282 L7.0557846,27.4337149 C7.0557846,27.747972 7.31092406,28 7.62206974,28 L14.9433277,28 C15.2575848,28 15.5096128,27.7448605 15.5096128,27.4337149 L15.5096128,25.7535282 C15.5096128,25.4423825 15.2544733,25.187243 14.9433277,25.187243 Z" id="形状" fill="#F097BF" fill-rule="nonzero"></path>
                        </g>
                    </g>
                </g>
            </g>
        </g>
    </g>
</svg>